<?xml version="1.0" encoding="UTF-8" standalone="no"?>
<svg
   xmlns:dc="http://purl.org/dc/elements/1.1/"
   xmlns:cc="http://creativecommons.org/ns#"
   xmlns:rdf="http://www.w3.org/1999/02/22-rdf-syntax-ns#"
   xmlns:svg="http://www.w3.org/2000/svg"
   xmlns="http://www.w3.org/2000/svg"
   xmlns:sodipodi="http://sodipodi.sourceforge.net/DTD/sodipodi-0.dtd"
   xmlns:inkscape="http://www.inkscape.org/namespaces/inkscape"
   id="Capa_1"
   enable-background="new 0 0 512.064 512.064"
   height="512"
   viewBox="0 0 512.064 512.064"
   width="512"
   version="1.1"
   sodipodi:docname="leaves.svg"
   inkscape:version="0.92.4 (5da689c313, 2019-01-14)">
  <metadata
     id="metadata843">
    <rdf:RDF>
      <cc:Work
         rdf:about="">
        <dc:format>image/svg+xml</dc:format>
        <dc:type
           rdf:resource="http://purl.org/dc/dcmitype/StillImage" />
      </cc:Work>
    </rdf:RDF>
  </metadata>
  <defs
     id="defs841" />
  <sodipodi:namedview
     pagecolor="#ffffff"
     bordercolor="#666666"
     borderopacity="1"
     objecttolerance="10"
     gridtolerance="10"
     guidetolerance="10"
     inkscape:pageopacity="0"
     inkscape:pageshadow="2"
     inkscape:window-width="1858"
     inkscape:window-height="1057"
     id="namedview839"
     showgrid="false"
     inkscape:zoom="1.2291505"
     inkscape:cx="256"
     inkscape:cy="256"
     inkscape:window-x="-8"
     inkscape:window-y="-8"
     inkscape:window-maximized="1"
     inkscape:current-layer="Capa_1" />
  <g
     id="g836"
     style="fill:#009fd3;fill-opacity:1"
     transform="translate(-0.81367175,0.81367175)">
    <path
       d="m 88.078,461.594 v -78.096 c 0,-55.851 18.314,-108.449 52.962,-152.106 33.609,-42.349 80.867,-72.763 133.07,-85.64 18.372,-4.532 36.413,-9.309 53.839,-14.246 C 314.149,93.838 293.135,56.215 265.315,19.459 L 250.586,0 C 209.763,44.617 163.82,87.948 110.19,132.418 73.886,162.522 48.178,204.605 37.803,250.915 27.114,298.626 32.742,347.166 54.079,391.288 Z"
       id="path830"
       style="fill:#009fd3;fill-opacity:1"
       inkscape:connector-curvature="0" />
    <path
       d="m 470.813,144.256 c -23.79,47.656 -53.42,94.853 -88.439,140.803 -36.165,47.454 -78.129,93.705 -124.727,137.467 -42.171,39.605 -80.147,69.739 -106.884,89.539 h 14.95 c 60.109,0 112.89,-9.061 156.878,-26.93 40.327,-16.382 73.564,-40.291 98.789,-71.063 53.044,-64.705 70.547,-160.418 49.433,-269.816 z"
       id="path832"
       style="fill:#009fd3;fill-opacity:1"
       inkscape:connector-curvature="0" />
    <path
       d="m 358.774,266.532 c 35.514,-46.642 65.26,-94.538 88.715,-142.803 -30.479,11.572 -62.678,22.378 -96.007,32.206 v 0.001 c -0.099,0.029 -0.201,0.058 -0.3,0.088 l -13.803,4.07 -0.023,-0.074 c -18.136,5.154 -36.924,10.138 -56.06,14.859 -45.789,11.295 -87.254,37.988 -116.757,75.163 -30.395,38.299 -46.46,84.447 -46.46,133.457 v 115.253 c 28.719,-20.464 73.161,-54.962 119.546,-98.576 45.301,-42.596 86.061,-87.56 121.149,-133.644 z"
       id="path834"
       style="fill:#009fd3;fill-opacity:1"
       inkscape:connector-curvature="0" />
  </g>
</svg>
