<?xml version="1.0" encoding="UTF-8" standalone="no"?>
<svg
   xmlns:dc="http://purl.org/dc/elements/1.1/"
   xmlns:cc="http://creativecommons.org/ns#"
   xmlns:rdf="http://www.w3.org/1999/02/22-rdf-syntax-ns#"
   xmlns:svg="http://www.w3.org/2000/svg"
   xmlns="http://www.w3.org/2000/svg"
   xmlns:sodipodi="http://sodipodi.sourceforge.net/DTD/sodipodi-0.dtd"
   xmlns:inkscape="http://www.inkscape.org/namespaces/inkscape"
   version="1.1"
   id="Layer_1"
   x="0px"
   y="0px"
   width="149.167px"
   height="172.243px"
   viewBox="0 0 149.167 172.243"
   enable-background="new 0 0 149.167 172.243"
   xml:space="preserve"
   sodipodi:docname="logo.svg"
   inkscape:version="0.92.4 (5da689c313, 2019-01-14)"><metadata
   id="metadata30"><rdf:RDF><cc:Work
       rdf:about=""><dc:format>image/svg+xml</dc:format><dc:type
         rdf:resource="http://purl.org/dc/dcmitype/StillImage" /><dc:title></dc:title></cc:Work></rdf:RDF></metadata><defs
   id="defs28" /><sodipodi:namedview
   pagecolor="#ffffff"
   bordercolor="#666666"
   borderopacity="1"
   objecttolerance="10"
   gridtolerance="10"
   guidetolerance="10"
   inkscape:pageopacity="0"
   inkscape:pageshadow="2"
   inkscape:window-width="1858"
   inkscape:window-height="1057"
   id="namedview26"
   showgrid="false"
   inkscape:snap-nodes="false"
   inkscape:zoom="2.5835593"
   inkscape:cx="120.47864"
   inkscape:cy="75.306961"
   inkscape:window-x="-8"
   inkscape:window-y="-8"
   inkscape:window-maximized="1"
   inkscape:current-layer="g59" />


<g
   id="g43"
   transform="translate(235.33425,29.803844)"><g
     id="g59"
     transform="translate(4.644755,-18.191957)"><g
       id="g885" /><g
       id="g910"
       transform="matrix(1.1031233,0,0,1.0462349,-19.035839,15.109429)"><path
         inkscape:connector-curvature="0"
         id="path47"
         d="m -192.31774,115.64752 c -4.4886,-2.39811 -5.24273,-3.1884 -6.03914,-6.3287 -0.8316,-3.27909 -1.07479,-4.84466 -0.90569,-5.83047 0.2094,-1.22077 1.24696,-3.17058 2.63793,-4.957281 0.6377,-0.81914 1.21436,-1.7196 1.28691,-2.00957 0.0723,-0.28896 0.12693,-1.02777 0.12141,-1.6418 -0.0137,-1.52007 0.65445,-3.3319 1.60431,-4.35064 0.36083,-0.387 0.62738,-0.73197 0.59232,-0.7666 12.00395,-21.448954 13.45603,-25.0657 14.72241,-27.335669 l 0.25368,-0.313168 c 0.13952,-0.172243 0.25439,-0.489958 0.25527,-0.706033 8.7e-4,-0.216076 0.0415,-0.640655 0.0902,-0.943506 0.33834,-2.227713 0.3892,-2.256068 2.47189,-8.79084 0.66709,-1.548377 1.94621,-3.423184 2.81872,-4.131418 1.16164,-0.942915 5.03163,-1.982983 9.11996,-2.451007 0.4421,-0.05061 1.32272,-0.329834 1.95693,-0.620495 0.63421,-0.290663 1.87065,-0.783979 2.74765,-1.096258 0.87699,-0.31228 2.1987,-0.84059 2.93713,-1.174022 1.32956,-0.60035 3.71195,-1.206577 4.74169,-1.206577 0.68231,0 0.98014,-0.168959 2.00225,-1.135859 0.46126,-0.436341 1.47234,-1.257109 2.24685,-1.823928 0.77451,-0.56682 1.66605,-1.304996 1.98121,-1.640393 0.31515,-0.335397 0.64131,-0.609935 0.72479,-0.610084 0.0943,-1.49e-4 0.13325,0.336549 0.10288,0.888597 -0.0572,1.040431 0.3005,1.979684 1.32997,3.491956 0.34798,0.511187 0.80538,1.292162 1.01645,1.735498 0.21106,0.443337 0.57825,1.07401 0.81597,1.401495 0.30291,0.417295 0.41042,0.706761 0.35937,0.96757 -0.0609,0.311142 0.0524,0.472109 0.69143,0.982008 0.42035,0.335427 1.01,0.728768 1.31033,0.874092 0.30034,0.145325 0.84892,0.607728 1.21907,1.027561 1.12066,1.271068 3.4161,4.559186 3.18279,4.559186 -0.0422,0 -0.4687,-0.334929 -0.9477,-0.744285 -0.47901,-0.409357 -0.95532,-0.744378 -1.05847,-0.744492 -0.21699,-2.97e-4 -2.12461,-1.873022 -3.33973,-3.278728 -0.83162,-0.96206 -0.99132,-0.957478 -0.66517,0.01909 0.16897,0.505906 0.84543,1.409505 2.22813,2.976248 0.40425,0.458054 1.20318,1.462838 1.77541,2.232854 1.84597,2.484016 3.07615,4.067209 3.57467,4.600453 0.26789,0.28655 0.6076,0.726389 0.75491,0.977423 0.14731,0.251032 0.51114,0.753425 0.80851,1.116427 0.29737,0.363001 0.9394,1.145926 1.42673,1.739832 0.56216,0.685094 1.02689,1.110579 1.27131,1.163944 0.62359,0.136156 1.03754,0.343112 1.03754,0.518717 0,0.104642 -0.15718,0.128424 -0.43487,0.06579 -0.31986,-0.07214 -0.43487,-0.04355 -0.43487,0.10811 0,0.262766 0.54367,1.020898 1.20529,1.680744 0.49321,0.491883 0.51666,0.499433 0.56188,0.180937 0.0259,-0.182801 -0.002,-0.767771 -0.0626,-1.299935 -0.0604,-0.532163 -0.13467,-1.938861 -0.16508,-3.125995 -0.0304,-1.187134 -0.13243,-2.426368 -0.22671,-2.753853 -0.0943,-0.327486 -0.26084,-0.997342 -0.37011,-1.48857 -0.27866,-1.252707 -0.35592,-1.414141 -0.67677,-1.414141 -0.42189,0 -1.39795,-0.871736 -1.49757,-1.337503 -0.0951,-0.444771 -0.87925,-1.307842 -1.03908,-1.143708 -0.13547,0.139114 -0.12396,0.95708 0.0222,1.57584 0.1097,0.464481 0.0961,0.49834 -0.1565,0.388963 -0.15216,-0.06589 -0.61544,-0.171323 -1.0295,-0.234288 -1.05893,-0.16103 -1.14963,-0.25078 -0.72457,-0.716987 0.19708,-0.216165 0.50176,-0.686713 0.67707,-1.04566 0.17531,-0.358946 0.45972,-0.798079 0.63202,-0.975847 0.1723,-0.177769 0.44374,-0.577072 0.60319,-0.887342 0.15946,-0.310268 0.81646,-1.277835 1.46002,-2.150147 1.05131,-1.425 1.21442,-1.584069 1.6066,-1.566775 0.70427,0.03106 1.74431,0.972666 2.66102,2.409162 0.94043,1.473664 1.37975,1.943412 1.60306,1.714096 0.10127,-0.103992 0.0798,-0.356999 -0.0676,-0.796283 -0.14239,-0.424384 -0.17056,-0.731081 -0.0827,-0.899731 0.14249,-0.273406 -0.15718,-1.049357 -0.57708,-1.49426 -0.33944,-0.359646 -2.0235,-1.143496 -2.75621,-1.282881 -0.59734,-0.113634 -0.65503,-0.164987 -0.75819,-0.674835 -0.13146,-0.649768 -0.81544,-2.046083 -1.00227,-2.046083 -0.0714,0 -0.12976,-0.09876 -0.12976,-0.219463 0,-0.120705 -0.20764,-0.329726 -0.46142,-0.46449 -0.25378,-0.134765 -1.41163,-1.160483 -2.573,-2.279375 -1.16137,-1.118891 -2.63343,-2.466669 -3.27125,-2.995065 -4.18945,-3.470735 -5.4168,-4.634801 -5.79509,-5.49626 -0.24587,-0.559915 -0.22725,-1.049329 0.0399,-1.049329 0.0686,0 0.28048,0.341491 0.47085,0.758869 0.19037,0.417377 0.50264,0.885294 0.69394,1.039815 0.34202,0.276274 0.35484,0.275807 0.77047,-0.02811 0.33721,-0.246573 0.41439,-0.404124 0.38178,-0.779315 -0.0225,-0.258645 0.0457,-1.073134 0.15161,-1.809976 0.5527,-3.846867 0.55193,-3.834847 0.36341,-5.670811 -0.3079,-2.998634 -0.5335,-3.629415 -1.54361,-4.315853 -0.78979,-0.536714 -0.96483,-0.410267 -0.99067,0.715649 -0.0118,0.514265 -0.0348,1.035506 -0.051,1.158313 -0.0163,0.122807 -0.0392,0.679392 -0.051,1.236855 -0.0118,0.557463 -0.0799,0.976481 -0.15133,0.931149 -0.0714,-0.04533 -0.3255,-0.467945 -0.56461,-0.939141 -0.62409,-1.229829 -1.35687,-2.355953 -2.23565,-3.435685 -0.42146,-0.517846 -0.82383,-1.053731 -0.89414,-1.190855 -0.0703,-0.137126 -0.33775,-0.584246 -0.5943,-0.993603 -0.25655,-0.409356 -0.62302,-1.202706 -0.81438,-1.762997 -0.19136,-0.560293 -0.5476,-1.263642 -0.79164,-1.562998 -0.24404,-0.299357 -0.52535,-0.752485 -0.62514,-1.006953 -0.0998,-0.254468 -0.43827,-0.720214 -0.75219,-1.034995 -0.38298,-0.384031 -0.57076,-0.703215 -0.57076,-0.970164 0,-0.404038 -0.65728,-2.0850354 -0.86849,-2.2211664 -0.0635,-0.04094 -0.10609,-0.523213 -0.0946,-1.071727 0.0131,-0.625896 -0.0466,-1.066607 -0.16033,-1.183412 -0.35597,-0.36563 -0.20622,-0.849624 0.38775,-1.253274 0.31293,-0.212653 0.60745,-0.489667 0.65451,-0.615586 0.1436,-0.384276 -0.54733,-0.952357 -1.21796,-1.001409 -0.7352,-0.05378 -0.84361,-0.155841 -0.53612,-0.50475 0.32849,-0.372734 0.30319,-0.545551 -0.12169,-0.83143 -0.19931,-0.134111 -0.36239,-0.368062 -0.36239,-0.519893 0,-0.151829 -0.0993,-0.360697 -0.2207,-0.464149 -0.19727,-0.168118 -0.19596,-0.226873 0.0123,-0.55324596 0.13651,-0.213954 0.1979,-0.508725 0.14824,-0.711882 -0.0594,-0.243198 0.0266,-0.482649 0.28825,-0.801929 0.24507,-0.29908104 0.34249,-0.55391804 0.28404,-0.74302604 -0.059,-0.190839 0.006,-0.356436 0.19415,-0.491452 0.15571,-0.111997 0.30511,-0.401886 0.33201,-0.644196 0.0341,-0.306806 0.17014,-0.499962 0.44823,-0.6362 0.32406,-0.158757 0.38257,-0.264188 0.31044,-0.559314 -0.0489,-0.200023 -0.0329,-0.364704 0.0356,-0.365957 0.0684,-0.0012 0.22228,-0.06873 0.34187,-0.149952 0.18532,-0.12586 0.16806,-0.187014 -0.11683,-0.414006 l -0.33427,-0.266332 1.20401,-0.561549 c 0.99595,-0.464505 1.26954,-0.669107 1.58317,-1.183928 0.20852,-0.342308 0.418,-0.931013 0.4655,-1.308233 0.0837,-0.664653 0.0697,-0.696907 -0.45162,-1.043363 -0.58649,-0.389743 -0.59807,-0.642783 -0.0306,-0.669655 0.67743,-0.03208 0.72138,-0.05718 0.68684,-0.3921936 -0.0356,-0.345132 0.0884,-0.377337 0.70654,-0.183601 0.39561,0.123982 0.54839,-0.373193 0.24939,-0.811554 -0.18869,-0.276639 -0.18346,-0.307074 0.0523,-0.304647 0.14405,0.0015 0.61508,0.202603 1.04673,0.446934 0.80349,0.454795 1.06778,0.480381 0.73723,0.07137 -0.10245,-0.126764 -0.14718,-0.27063 -0.0994,-0.319701 0.13094,-0.134467 0.56472,0.07423 0.47256,0.227354 -0.0964,0.160184 0.32051,0.546049 0.44825,0.41487 0.0493,-0.05062 0.004,-0.198353 -0.10129,-0.328286 -0.16793,-0.207779 -0.14658,-0.224814 0.17713,-0.141381 0.43179,0.111286 0.63783,-0.229341 0.40684,-0.672567 -0.19258,-0.3695 -0.18502,-1.741965 0.0103,-1.865906 0.0852,-0.05407 0.19049,0.04232 0.23434,0.2145 0.12866,0.505224 0.38853,0.365049 0.88605,-0.47793 0.62509,-1.059142 1.24552,-1.643861 2.20388,-2.077013 0.4385,-0.19819 0.99296,-0.528632 1.23214,-0.734315 0.48486,-0.416953 3.122,-1.397178 4.1313,-1.535599 0.35877,-0.0492 1.089,-0.198059 1.62272,-0.330789 0.97982,-0.243664 2.33307,-0.188943 6.06004,0.245045 0.51823,0.06034 1.17054,0.05993 1.44958,-9.38e-4 0.27905,-0.06086 0.89874,-0.13279 1.3771,-0.159851 0.78904,-0.04464 0.86976,-0.02158 0.86989,0.248511 1.1e-4,0.234121 0.12396,0.315557 0.57983,0.381251 0.31883,0.04594 0.78845,0.196663 1.04361,0.334928 0.25514,0.138271 0.5492,0.251397 0.65346,0.251397 0.10425,0 0.49588,0.167464 0.8703,0.372143 0.37442,0.204678 0.78785,0.372142 0.91875,0.372142 0.1309,0 0.72096,0.235354 1.31126,0.523009 0.75833,0.369538 1.07327,0.60301 1.07327,0.795642 0,0.370486 0.49533,0.803894 0.97949,0.857034 1.10773,0.121585 1.59027,0.270131 1.92617,0.592959 0.32664,0.313929 0.41931,0.335004 0.80894,0.183979 0.38292,-0.148424 0.49777,-0.126725 0.88487,0.167165 0.24466,0.18575 0.65704,0.628562 0.9164,0.984025 0.25936,0.355463 0.66681,0.716187 0.90543,0.801609 0.23862,0.08542 0.7247,0.400041 1.08016,0.699153 0.54258,0.456562 0.60852,0.565553 0.41088,0.679134 -0.12949,0.07441 -0.38037,0.08805 -0.55752,0.03032 -0.29079,-0.09477 -0.3021,-0.08023 -0.11635,0.149595 0.11316,0.140014 0.39674,0.3559976 0.63018,0.4799636 0.41449,0.220106 0.42214,0.245188 0.32619,1.069398 -0.0821,0.705626 -0.17822,0.917223 -0.58594,1.290576 -0.26823,0.245614 -0.5085,0.577882 -0.53394,0.738374 -0.0265,0.16702 -0.36815,0.485294 -0.79899,0.744284 -0.54476,0.327469 -0.76479,0.555298 -0.79639,0.824624 -0.0367,0.31278 -0.13037,0.379513 -0.58726,0.418343 -0.60725,0.05161 -0.64178,0.115738 -0.31793,0.590534 0.21426,0.314128 0.20822,0.330836 -0.11952,0.330836 -0.20923,0 -0.69989,-0.315452 -1.24587,-0.800993 -1.58526,-1.409762 -3.18308,-2.047042 -5.08705,-2.028937 -0.56052,0.0053 -0.66147,0.241879 -0.22776,0.533702 0.34196,0.230086 0.37779,0.327117 0.29368,0.795357 -0.0527,0.293315 -0.21953,0.670004 -0.37075,0.837085 -0.21562,0.238228 -0.28233,0.564812 -0.30914,1.513375 l -0.0342,1.20959 -0.48541,0.237701 c -0.70833,0.346864 -1.06779,1.26405404 -1.00065,2.553242 0.0455,0.872977 0.0996,1.03424 0.42969,1.281199 0.20772,0.155386 0.51494,0.510587 0.6827,0.789337 0.16776,0.278749 0.42541,0.546053 0.57254,0.594007 0.16042,0.05228 0.30415,0.287744 0.35903,0.588155 0.10418,0.57026 0.28185,0.761872 0.83975,0.905662 0.21553,0.05555 0.46508,0.191577 0.55455,0.302284 0.13392,0.165712 0.0645,0.18312 -0.39269,0.09851 -0.30545,-0.05653 -0.84118,-0.103436 -1.19051,-0.104246 -0.75295,-0.0017 -1.1302,0.395279 -1.27489,1.341731 l -0.0905,0.591937 0.31312,-0.284879 c 0.25349,-0.230614 0.37499,-0.253916 0.63788,-0.122328 0.17861,0.0894 0.67577,0.243135 1.1048,0.341627 0.98245,0.22554 1.32183,0.560872 1.32183,1.306054 0,0.722982 -0.0882,0.806876 -0.576,0.547844 -0.21685,-0.115157 -0.53939,-0.170408 -0.71675,-0.12278 -0.20966,0.0563 -0.47612,-0.03006 -0.76167,-0.246853 -0.31626,-0.24011 -0.55682,-0.30929 -0.8594,-0.247145 -0.38287,0.07863 -0.42021,0.0496 -0.42021,-0.326777 0,-0.879198 -0.64435,-1.034468 -0.86119,-0.207521 -0.23686,0.903278 -0.42398,1.055979 -1.47955,1.207362 -0.53001,0.07601 -1.09544,0.210631 -1.25652,0.299156 -0.16107,0.08852 -0.47759,0.127225 -0.70336,0.086 -0.23874,-0.04359 -0.52051,0.01343 -0.67341,0.136265 -0.22917,0.1841154 -0.2424,0.2893984 -0.10313,0.8205214 0.096,0.366256 0.24571,0.609304 0.37521,0.609304 0.11849,0 0.27744,0.167464 0.35322,0.372142 0.0758,0.204678 0.23673,0.372142 0.35767,0.372142 0.12093,0 0.33455,0.249377 0.4747,0.554171 0.14015,0.304792 0.38528,0.623786 0.54473,0.708876 0.64394,0.343626 1.08718,0.717782 1.08718,0.917736 0,0.116272 -0.10535,0.376509 -0.23411,0.578307 -0.21574,0.338118 -0.21547,0.396104 0.003,0.739048 0.1306,0.204678 0.2941,0.372143 0.36333,0.372143 0.0692,0 0.22806,0.262245 0.35295,0.582767 0.12489,0.320522 0.29292,0.624563 0.37342,0.675651 0.0805,0.05109 0.34562,0.521642 0.58917,1.045681 0.24355,0.524039 0.56334,0.99208 0.71065,1.040092 0.14731,0.04801 0.52894,0.370232 0.84807,0.716048 1.21266,1.314075 1.18606,1.30064 2.74419,1.386166 2.09019,0.11473 2.22521,0.114285 3.0334,-0.01002 0.59505,-0.09153 0.82126,-0.0614 1.15966,0.154464 0.58986,0.376257 0.78281,0.654475 0.78281,1.128769 0,0.235711 0.10763,0.472573 0.25258,0.555875 0.13892,0.07983 0.25307,0.267372 0.25367,0.416753 7.3e-4,0.195984 0.0919,0.258636 0.32726,0.22503 0.21375,-0.03052 0.32615,0.03058 0.32615,0.177286 0,0.318771 -0.26701,0.446257 -0.50674,0.241945 -0.11227,-0.09568 -0.33699,-0.13067 -0.49937,-0.07775 -0.16237,0.05292 -0.88286,-0.01988 -1.60108,-0.161787 -0.71822,-0.141906 -1.34518,-0.217622 -1.39325,-0.168257 -0.16002,0.164319 0.10244,0.413402 0.78043,0.740667 0.36906,0.178146 0.91403,0.573445 1.21103,0.878442 0.29701,0.304998 0.70746,0.667204 0.91211,0.804901 0.20465,0.137697 0.37208,0.332515 0.37208,0.432928 0,0.100415 -0.41523,0.592028 -0.92274,1.092474 -0.89075,0.878341 -0.92627,0.941812 -1.02411,1.829844 -0.13256,1.203188 -0.40193,1.624289 -1.03902,1.624289 -0.43922,0 -0.52452,0.07353 -0.84963,0.732364 -0.34565,0.700441 -0.35229,0.763446 -0.15244,1.445354 0.18633,0.635776 0.1842,0.741078 -0.0196,0.972391 -0.46797,0.531007 -1.64595,0.626451 -4.21863,0.341807 -2.8199,-0.311997 -2.78301,-0.325584 -3.65503,1.34614 -0.32461,0.622301 -0.92655,1.431399 -1.49487,2.009363 -0.5233,0.532164 -1.05118,1.218739 -1.17309,1.525725 -0.37122,0.934806 -0.94275,1.583673 -1.54051,1.748962 -0.75792,0.209576 -0.92971,0.462895 -0.7736,1.140743 0.22503,0.977125 1.31816,0.989512 2.22942,0.02526 0.75738,-0.801422 2.49827,-3.195436 2.87005,-3.946805 0.32763,-0.662132 0.53511,-0.874473 0.65683,-0.672217 0.10908,0.181235 -0.52236,1.512245 -1.22929,2.591225 -0.65179,0.994814 -3.12398,3.554829 -4.15264,4.30016 -0.72914,0.528304 -0.77718,0.729793 -0.174,0.729793 0.79621,0 2.37342,1.044735 3.26611,2.163448 l 0.51706,0.647966 -0.29475,1.069546 c -0.26944,0.977726 -0.2758,1.10716 -0.0741,1.507696 0.17023,0.338054 0.18194,0.48604 0.0512,0.647771 -0.14266,0.176519 -0.21201,0.157201 -0.43916,-0.122336 -0.19407,-0.238829 -0.27054,-0.269317 -0.27259,-0.10867 -0.006,0.475721 0.18206,0.907695 0.36405,0.83598 0.23688,-0.09334 0.33872,0.05432 0.86072,1.248017 0.64139,1.466711 1.36322,2.184173 1.16066,1.153641 -0.0523,-0.266082 -0.25284,-0.818713 -0.44563,-1.22807 -0.34227,-0.72674 -0.34578,-0.771701 -0.14883,-1.907369 0.11095,-0.639698 0.23638,-1.198685 0.27875,-1.242196 0.0424,-0.04351 0.4568,0.714325 0.92096,1.684084 0.51829,1.082886 0.9278,1.763195 1.06134,1.763195 0.2269,0 0.27134,-0.347544 0.55741,-4.3594 0.13046,-1.829682 0.2655,-2.161517 0.70048,-1.721405 0.1497,0.151461 0.55969,0.468753 0.91108,0.70509 l 0.6389,0.429707 0.32011,-0.412255 0.32011,-0.412255 0.63152,0.499441 c 0.34734,0.274691 0.80561,0.659323 1.01838,0.854736 0.21277,0.195414 0.44662,0.317363 0.51968,0.270997 0.16229,-0.102998 2.33806,0.743986 2.65634,1.034063 0.12587,0.114714 0.3429,0.208571 0.48228,0.208571 0.13939,0 0.85179,0.295928 1.58312,0.657616 1.87441,0.927011 6.15693,2.710829 6.78261,2.825188 0.58588,0.107083 1.795391,1.292374 2.516825,2.466417 0.673317,1.095738 1.49419,3.559934 2.175553,6.530829 0.35342,1.540999 0.701151,2.963873 0.772733,3.161942 0.07158,0.19807 0.243735,1.130463 0.382564,2.071983 0.138829,0.94152 0.374513,2.281233 0.523744,2.977143 0.14923,0.6959 0.340854,1.73418 0.425831,2.30728 0.08498,0.5731 0.343463,2.01329 0.574414,3.20042 0.877504,4.51055 1.228909,10.22611 1.125705,18.30941 -0.05313,4.16167 -0.12698,5.781661 -0.315523,6.921841 -0.521624,3.15444 -0.09421,4.5006 2.188339,6.89221 1.412529,1.48001 1.761559,2.0033 2.090669,3.13446 0.144272,0.49587 0.327357,0.738 0.777178,1.02782 1.122774,0.7234 2.364608,1.95937 2.615424,2.60309 0.228134,0.5855 0.227328,0.63108 -0.01437,0.81256 -0.140831,0.10575 -0.604404,0.19227 -1.030166,0.19227 -0.52853,0 -0.798733,0.0659 -0.85172,0.20768 -0.103994,0.2783 0.195569,1.38927 0.411563,1.52635 0.302978,0.19229 2.621461,0.0498 2.970633,-0.18256 0.785528,-0.52276 0.523783,-1.77927 -0.624176,-2.99637 -0.437077,-0.46341 -0.833054,-1.01448 -0.879949,-1.22461 -0.0469,-0.21013 -0.250519,-0.63447 -0.452496,-0.94297 -0.448814,-0.68552 -0.350769,-0.83648 0.284283,-0.43772 0.263305,0.16533 1.147076,0.64421 1.963935,1.06418 0.816857,0.41996 2.116761,1.16805 2.888673,1.66241 0.771914,0.49436 1.713219,1.06001 2.091792,1.25701 0.378574,0.197 0.727234,0.48409 0.774799,0.63799 0.196854,0.63691 -0.368498,1.15129 -1.189817,1.08254 -0.732363,-0.0613 -1.336535,0.11598 -1.243518,0.3649 0.06437,0.17226 -0.04225,0.19549 -0.561668,0.12238 -0.492045,-0.0692 -0.69783,-0.032 -0.884994,0.16019 -0.329979,0.33886 -0.306721,0.52688 0.06517,0.52688 0.169974,0 0.530458,0.14052 0.801076,0.31227 0.458933,0.29127 0.515808,0.29628 0.845517,0.0744 0.194417,-0.13081 0.478752,-0.23784 0.631855,-0.23784 0.153103,0 0.61218,-0.11071 1.020169,-0.24602 0.694862,-0.23045 0.759132,-0.22991 1.015738,0.009 0.192046,0.17847 0.70111,0.29492 1.702891,0.38953 2.412268,0.22782 4.91168,0.835 5.220078,1.2681 0.105597,0.1483 0.233793,0.5932 0.284881,0.98868 0.06034,0.46707 0.264086,0.96631 0.581442,1.42469 0.268704,0.3881 0.488554,0.78286 0.488554,0.87723 0,0.0944 0.236046,0.53 0.524547,0.96805 0.288503,0.43805 0.616358,1.06102 0.728569,1.38438 0.11221,0.32336 0.374574,0.89274 0.583029,1.26528 0.869535,1.55401 2.077717,4.12272 2.077717,4.41741 0,0.17438 -0.09785,0.40045 -0.217437,0.50237 -0.291603,0.24852 -0.273902,0.42511 0.07222,0.72043 0.236168,0.20151 0.293029,0.44352 0.307943,1.31062 0.01006,0.58491 -0.02686,1.13849 -0.08205,1.2302 -0.05519,0.0917 -0.35684,0.30109 -0.670338,0.46533 -0.831911,0.43582 -0.752738,0.6 0.37223,0.77182 0.342379,0.0523 0.464034,0.685 0.221274,1.1508 -0.151768,0.29121 -0.282313,0.3048 -2.871854,0.29881 l -2.71286,-0.006 1.212282,-0.50178 c 1.384074,-0.57289 1.647541,-0.76764 1.323269,-0.97817 -0.284308,-0.18458 -1.278445,-0.17693 -2.535551,0.0195 -0.558088,0.0872 -1.39524,0.20822 -1.860338,0.26891 -0.875917,0.11429 -1.105266,0.29402 -1.109078,0.86912 -0.0021,0.32089 -0.05388,0.33493 -1.234361,0.33493 -1.391446,0 -1.43827,-0.0525 -1.002549,-1.12335 0.2082,-0.5117 0.208665,-0.63476 0.005,-1.32068 -0.123527,-0.41602 -0.269391,-0.95231 -0.32414,-1.19176 -0.137642,-0.60195 -1.415861,-2.71851 -2.060263,-3.41152 -1.042546,-1.12116 -3.212359,-1.84743 -3.428654,-1.14762 -0.09329,0.30185 0.6287,2.26585 1.020835,2.77691 0.211128,0.27516 0.22269,0.2738 0.447927,-0.0525 0.303548,-0.43972 0.460298,-0.42326 1.096348,0.11513 0.802604,0.67937 0.820979,0.93918 0.126258,1.78524 l -0.594376,0.72385 0.296542,0.8139 c 0.163099,0.44765 0.445722,1.03782 0.628054,1.31149 0.271022,0.40681 0.414016,0.49092 0.783677,0.46097 0.24869,-0.0202 0.492323,0.0301 0.541406,0.11164 0.05908,0.0982 -5.88728,0.14828 -17.592089,0.14828 -14.00943,0 -17.69652,-0.0387 -17.75445,-0.18607 -0.0585,-0.14886 -0.0754,-0.14886 -0.0846,0 -0.009,0.14845 -9.62388,0.18607 -47.55992,0.18607 13.16615,-35.48379 -18.44671,-23.57756 -31.63029,-23.44329 z m 122.247106,18.75026 c 1.811083,-0.39121 1.895601,-0.82326 0.156688,-0.80097 -1.430026,0.0183 -2.545462,0.27779 -2.607097,0.60644 -0.08445,0.45032 0.903276,0.52874 2.450409,0.19453 z m -62.220986,-5.22515 c 0.57329,-0.11775 0.57391,-0.29938 0.002,-0.62096 -1.1404,-0.64139 -1.35681,-0.85295 -1.44547,-1.41304 -0.12012,-0.75885 0.081,-0.88346 1.42324,-0.88174 0.61897,7.5e-4 1.20469,-0.065 1.30159,-0.14627 0.19727,-0.16539 1.11421,-0.0417 1.95863,0.26427 0.50472,0.18286 0.55567,0.17496 0.70374,-0.10915 0.23336,-0.44776 0.0425,-1.20929 -0.41231,-1.6448 -0.53824,-0.51545 -0.82974,-0.65088 -1.84641,-0.85783 -0.65692,-0.13372 -0.95843,-0.28338 -1.23214,-0.61158 -0.34494,-0.4136 -0.42527,-0.43636 -1.66702,-0.47227 l -1.30462,-0.0377 0.0237,0.71023 c 0.0138,0.41378 0.14996,0.92991 0.32616,1.23657 0.16633,0.2895 0.30242,0.74457 0.30242,1.01128 0,0.40763 -0.0809,0.52452 -0.50735,0.73337 -0.39494,0.1934 -0.50736,0.33755 -0.50736,0.65062 0,0.22119 -0.13776,0.55275 -0.30613,0.7368 l -0.30614,0.33463 0.37203,0.38204 c 0.21719,0.22303 0.54067,0.38421 0.77725,0.38729 0.22287,0.003 0.5683,0.10102 0.76761,0.21802 0.39736,0.23326 0.88049,0.27318 1.57642,0.13025 z m 55.691046,-0.25486 c -0.111555,-0.11456 -0.221812,-0.0929 -0.386098,0.0758 -0.209964,0.2156 -0.196392,0.22954 0.156146,0.16033 0.27584,-0.0541 0.341507,-0.12157 0.229952,-0.23613 z m -7.609538,-2.71631 c -0.05442,-0.22266 -0.290906,-0.58898 -0.52552,-0.81404 -0.234613,-0.22506 -0.42657,-0.45577 -0.42657,-0.5127 0,-0.0569 -0.254254,-0.40012 -0.565008,-0.76266 -0.310755,-0.36253 -0.677849,-0.90869 -0.815765,-1.21369 -0.259143,-0.5731 -0.62559,-1.07555 -0.784415,-1.07555 -0.04997,0 -0.175773,0.29537 -0.279574,0.65638 -0.139158,0.48397 -0.147295,0.73588 -0.03098,0.95906 0.115582,0.22178 0.111339,0.40728 -0.01587,0.694 -0.141818,0.31962 -0.135301,0.41596 0.03557,0.5259 0.419377,0.26982 1.725201,0.62261 1.960854,0.52974 0.366486,-0.14441 0.640144,0.1832 0.640144,0.76636 0,0.28733 0.144815,0.76303 0.32181,1.05712 l 0.321809,0.53471 0.131232,-0.4699 c 0.07218,-0.25843 0.0867,-0.65206 0.03228,-0.87473 z m 4.490417,0.91255 c 0.410122,-0.42116 0.468353,-1.12141 0.146021,-1.75594 -0.212683,-0.41868 -1.340883,-1.88447 -1.602188,-2.08162 -0.643404,-0.48541 -1.814482,0.42143 -1.810613,1.40208 0.0017,0.42458 0.69719,1.69319 1.224677,2.23379 0.6274,0.64299 1.52594,0.73173 2.042103,0.20169 z m -68.526345,-2.45361 c 0.0362,-0.11164 -0.0181,-0.16746 -0.12684,-0.13025 -0.10464,0.0358 -0.21879,0.15305 -0.25367,0.2605 -0.0362,0.11165 0.0181,0.16747 0.12683,0.13025 0.10465,-0.0358 0.2188,-0.15304 0.25368,-0.2605 z m -2.0777,-1.10712 -0.003,-0.91175 h -0.57619 c -0.56085,0 -0.57965,0.0169 -0.70615,0.63264 -0.0788,0.38384 -0.21074,0.63265 -0.33536,0.63265 -0.28535,0 -0.0935,0.27074 0.41825,0.59034 0.3374,0.2107 0.51341,0.23614 0.81769,0.11818 0.36274,-0.14063 0.38755,-0.20911 0.38475,-1.06206 z m 1.17168,0.78511 c 0.0562,-0.0934 0.27877,-0.12685 0.51735,-0.0778 0.56804,0.11666 1.33034,-0.55928 1.19633,-1.06079 -0.12109,-0.45312 -0.26933,-0.42318 -0.84822,0.17128 -0.27113,0.27842 -0.72617,0.58525 -1.01121,0.68185 -0.28504,0.0966 -0.48119,0.23723 -0.43589,0.3125 0.1133,0.18825 0.46183,0.17207 0.58164,-0.027 z m -3.28907,-0.68837 c -0.10942,-0.14124 -0.37833,-0.41514 -0.59758,-0.60866 -0.48027,-0.42392 -0.53379,-0.92083 -0.0992,-0.92083 0.3547,0 0.86022,-0.25545 0.86022,-0.43468 0,-0.0696 -0.17483,-0.24414 -0.38852,-0.38792 -0.38074,-0.25618 -0.39491,-0.25379 -0.70764,0.11957 -0.23526,0.28085 -0.36173,0.33724 -0.48123,0.21452 -0.1195,-0.12271 -0.1621,-0.0871 -0.1621,0.13551 0,0.36777 0.7845,1.61452 1.20724,1.91858 0.41477,0.29834 0.61287,0.27895 0.3688,-0.0361 z m 3.00835,-0.41797 c -0.0449,-0.12011 -0.14888,-0.21838 -0.23111,-0.21838 -0.21342,0 -0.18559,0.55778 0.0317,0.63513 0.21812,0.0776 0.31136,-0.11721 0.19942,-0.41675 z m 21.06728,-0.36078 c 0.69668,-0.76586 0.8007,-1.21504 0.46296,-1.9991 -0.33163,-0.76986 -0.76101,-1.08821 -2.26907,-1.68231 -1.18952,-0.46861 -1.3643,-0.58796 -1.53456,-1.0478 -0.1776,-0.4797 -0.78073,-0.67444 -1.7361,-0.56058 -1.02387,0.12203 -1.21096,0.23882 -1.077,0.67225 0.15601,0.50478 1.76941,2.2482 2.4893,2.68992 0.81587,0.5006 0.82043,0.50653 0.64675,0.83978 -0.12671,0.24313 -0.0786,0.30957 0.33574,0.46342 0.26601,0.0988 0.72764,0.37871 1.02585,0.62207 0.68988,0.56299 1.14554,0.56364 1.65613,0.002 z m -23.63297,0.0812 c 0.11604,-0.14358 0.12165,-0.24056 0.0178,-0.3065 -0.20242,-0.12846 -0.44192,0.0352 -0.44192,0.30203 0,0.27332 0.20514,0.27548 0.42417,0.004 z m 71.898936,-0.19956 c 0.273073,-0.14314 0.559911,-0.36712 0.637417,-0.49772 0.225957,-0.38076 -0.0095,-0.98353 -0.549419,-1.40641 -0.592711,-0.46424 -1.135752,-0.4102 -1.820108,0.18114 -0.534242,0.46163 -0.551162,0.92159 -0.05612,1.52573 0.440804,0.53796 1.01705,0.60152 1.788232,0.19726 z m -67.974366,0.0277 c 0,-0.30602 -0.35262,-0.66007 -0.65741,-0.66007 -0.44391,0 -0.45819,0.20827 -0.0351,0.51256 0.31957,0.22986 0.69253,0.3093 0.69253,0.14751 z m 1.46706,-1.40144 c 0.21919,-0.73352 0.20637,-1.09822 -0.12554,-3.57198 -0.12716,-0.94776 -0.0112,-0.88636 -2.42871,-1.28587 -2.08792,-0.34504 -2.44399,-0.3479 -2.50752,-0.0202 -0.0432,0.22308 0.0499,0.25513 0.64869,0.22328 0.49289,-0.0262 0.68867,0.0171 0.66357,0.14691 -0.0206,0.10639 0.24053,0.25549 0.6186,0.35325 0.89897,0.23245 1.85531,1.02051 2.24716,1.85176 0.25973,0.55094 0.32245,0.9353 0.31529,1.93181 -0.0103,1.43504 0.20794,1.57747 0.56846,0.37099 z m -2.26433,-0.003 c 0.0493,-0.0819 0.0205,-0.14886 -0.0639,-0.14886 -0.0844,0 -0.15351,0.067 -0.15351,0.14886 0,0.0819 0.0288,0.14886 0.0639,0.14886 0.0352,0 0.10424,-0.067 0.15351,-0.14886 z m 1.34361,-0.71964 c 0.0129,-0.58079 -0.0514,-0.79889 -0.30833,-1.04679 -0.30062,-0.29002 -0.34853,-0.29594 -0.64853,-0.0802 l -0.32393,0.23299 0.4397,0.51427 c 0.24184,0.28284 0.43971,0.63474 0.43971,0.78198 0,0.14725 0.0417,0.31057 0.0927,0.36292 0.1916,0.19676 0.29291,-0.0544 0.30868,-0.76521 z m -2.38609,-0.50906 c 0.14417,-0.29845 0.25945,-0.69672 0.25617,-0.88504 -0.003,-0.18832 -0.007,-0.49983 -0.009,-0.69224 -0.004,-0.5013 -0.13665,-0.66304 -0.37598,-0.45907 -0.12401,0.10569 -0.16969,0.30992 -0.11728,0.52434 0.0522,0.21355 -0.0348,0.6072 -0.22202,1.00428 -0.302,0.64063 -0.28027,1.20397 0.0425,1.10197 0.0898,-0.0284 0.2813,-0.2958 0.42547,-0.59424 z m -1.17779,-0.44098 c -0.10402,-0.10681 -0.17153,-0.1156 -0.17153,-0.0223 0,0.19869 0.17142,0.37473 0.26817,0.27539 0.0412,-0.0423 -0.002,-0.15618 -0.0966,-0.25306 z m -0.6392,-0.4409 c -0.10644,-0.32792 -0.5275,-0.50555 -0.79209,-0.33416 -0.47826,0.30979 -0.38218,0.5096 0.24505,0.5096 0.39924,0 0.58469,-0.0595 0.54704,-0.17544 z m 22.38299,-1.79845 c -0.17577,-0.1805 -0.3877,-0.2628 -0.53116,-0.20627 -0.28799,0.11349 -0.16078,0.37003 0.26563,0.53569 0.46274,0.17977 0.59799,0.012 0.26553,-0.32942 z m -18.03029,-1.56804 c -0.0258,-0.13777 -0.17669,-0.27452 -0.33523,-0.30388 -0.54116,-0.1002 -0.59671,-0.33475 -0.0688,-0.2903 0.42114,0.0355 0.50529,-0.007 0.50529,-0.25265 0,-0.31469 -0.48621,-0.47948 -1.81197,-0.61412 -0.5741,-0.0583 -0.68443,-0.0199 -0.9202,0.32002 -0.26054,0.37569 -0.26054,0.39199 0,0.59469 0.25512,0.19849 0.25235,0.20865 -0.0583,0.21315 -0.21214,0.003 -0.32616,-0.0837 -0.32616,-0.24832 0,-0.194 -0.0398,-0.21219 -0.17052,-0.0779 -0.30399,0.31216 0.24958,0.76983 0.8168,0.67531 0.26209,-0.0437 0.51556,-0.0146 0.56327,0.0647 0.0477,0.0793 0.48409,0.14991 0.96973,0.15698 0.7533,0.011 0.87609,-0.0239 0.83601,-0.23766 z m -1.82497,-0.42455 c -0.18245,-0.21369 -0.29984,-0.42128 -0.26086,-0.46131 0.0841,-0.0864 0.93537,0.58201 0.94697,0.74358 0.0176,0.24503 -0.37315,0.0843 -0.68611,-0.28227 z m 17.5923,0.42885 c 0.0855,-0.0601 0.20105,-0.23571 0.25669,-0.39013 0.0955,-0.26509 0.11638,-0.26663 0.37367,-0.0275 0.3662,0.34032 0.49297,0.0781 0.22695,-0.46952 -0.28843,-0.59373 -1.19506,-0.99749 -2.25365,-1.00363 -0.98507,-0.006 -1.20088,0.14219 -0.75237,0.51561 0.17939,0.14935 0.32688,0.39478 0.32777,0.5454 10e-4,0.19011 0.23385,0.37071 0.76103,0.59057 0.9231,0.38499 0.86973,0.37294 1.05991,0.23922 z m 2.23627,-0.25822 c 0,-0.12281 -0.0979,-0.22329 -0.21744,-0.22329 -0.37724,0 -0.25499,0.29337 0.1812,0.43482 0.0199,0.006 0.0362,-0.0887 0.0362,-0.21153 z m 37.833993,-2.51515 c 0,-0.2729 -0.835552,-1.01952 -1.418395,-1.26744 -0.526355,-0.22389 -1.190846,-0.10975 -1.190846,0.20456 0,0.41044 0.647431,0.95509 1.30462,1.0975 0.966562,0.20946 1.304621,0.20049 1.304621,-0.0346 z m -35.949543,-2.17979 c 0,-0.1751 -0.12654,-0.31537 -0.32615,-0.36154 -0.50665,-0.11719 -1.15319,-0.20228 -1.63895,-0.2157 -0.30646,-0.008 -0.79555,-0.28761 -1.58637,-0.90539 -0.62882,-0.49122 -1.22853,-0.89314 -1.33268,-0.89314 -0.41211,0 -0.151,0.62208 0.57771,1.3764 0.81842,0.84718 1.27213,1.02808 3.21926,1.28355 0.99734,0.13086 1.08718,0.10737 1.08718,-0.28418 z m -44.95078,-10.49525 c -0.0866,-1.306211 -0.1897,-2.542391 -0.22902,-2.747071 l -0.0715,-0.37215 -0.29221,0.36985 c -0.23164,0.29317 -0.27276,0.49375 -0.19838,0.96757 0.2582,1.644831 0.3073,2.559731 0.17036,3.174271 -0.13597,0.61014 -0.12058,0.68518 0.19419,0.94692 0.18803,0.15635 0.39636,0.22831 0.46297,0.15991 0.0666,-0.0684 0.0502,-1.19308 -0.0364,-2.4993 z m 66.83941,-23.598771 c 2.87575,-0.57954 3.04412,-0.6463 3.04412,-1.20697 0,-0.71005 0.23704,-1.01416 0.79051,-1.01416 1.08274,0 1.30053,-0.54133 0.42999,-1.06877 -0.53255,-0.32267 -0.83715,-0.85302 -0.70027,-1.2193 0.0711,-0.19034 -0.55825,-0.83792 -0.81437,-0.83792 -0.1725,0 -1.01048,-0.84578 -1.01048,-1.019887 0,-0.08589 0.28346,-0.399473 0.62992,-0.696863 0.48616,-0.417312 0.61523,-0.619579 0.56558,-0.886296 -0.0384,-0.206465 0.094,-0.622951 0.32887,-1.034572 0.45568,-0.798491 0.66955,-2.713023 0.32792,-2.935646 -0.43347,-0.282477 -0.58319,0.07851 -0.16332,0.39378 0.1477,0.110906 0.18222,0.216049 0.0901,0.274499 -0.20406,0.129509 -1.50484,-1.322754 -1.41061,-1.574892 0.0415,-0.111107 0.26913,-0.319479 0.50581,-0.46305 0.23668,-0.143571 0.43033,-0.320283 0.43033,-0.392695 0,-0.299759 -0.32577,-0.299607 -0.79844,4.47e-4 -0.54844,0.348069 -1.01353,0.346793 -1.01353,-0.0028 0,-0.140085 0.17024,-0.23816 0.46409,-0.267354 0.82685,-0.08215 0.82282,-0.904665 -0.007,-1.483569 -0.62408,-0.435233 -0.97342,-0.315751 -0.92647,0.316862 0.0281,0.378017 -0.0247,0.477072 -0.27332,0.513576 -0.41026,0.06023 -0.81423,-0.36673 -0.69918,-0.738969 0.0621,-0.200994 -0.0287,-0.403161 -0.29501,-0.656599 -0.43471,-0.413713 -0.81209,-0.340141 -0.43721,0.08524 0.15581,0.176807 0.18372,0.301539 0.0819,0.366149 -0.0849,0.05389 -0.1544,0.229667 -0.1544,0.390605 0,0.38835 -0.39731,0.522714 -1.88446,0.637298 l -1.23214,0.09494 0.50735,-0.28982 c 0.27905,-0.1594 0.65413,-0.358794 0.83351,-0.443095 0.44452,-0.208901 0.44685,-0.950094 0.004,-1.268631 -0.51698,-0.371846 -0.96975,-0.283382 -1.48054,0.289273 -0.2556,0.28655 -0.54163,0.521 -0.63562,0.521 -0.31585,0 -0.17465,0.416875 0.27189,0.802718 l 0.4428,0.382613 -0.47904,0.29992 c -0.63461,0.397244 -0.69648,0.382662 -0.69648,-0.164218 0,-0.434379 -0.028,-0.459436 -0.42223,-0.378459 -0.33254,0.06829 -0.465,0.0169 -0.62353,-0.241893 -0.29266,-0.477755 -0.1269,-1.208985 0.28781,-1.269608 0.18006,-0.02632 0.29666,-0.09889 0.25913,-0.161252 -0.0375,-0.06237 -0.26681,-0.08347 -0.5095,-0.04689 -0.38904,0.05863 -0.44126,0.124389 -0.44126,0.555621 0,0.464716 -0.0307,0.492762 -0.61607,0.56226 -0.79185,0.09402 -2.17815,0.601131 -2.25021,0.823136 -0.0306,0.09424 0.0714,0.356542 0.22665,0.582881 0.15525,0.22634 0.33247,0.577233 0.39383,0.779763 0.1493,0.492818 2.11212,2.683149 2.40453,2.68325 0.12717,4.5e-5 0.34599,-0.130165 0.48628,-0.289352 0.212,-0.24055 0.23787,-0.441677 0.1532,-1.190856 -0.0584,-0.516576 -0.0458,-0.901422 0.0295,-0.901422 0.0723,0 0.32328,0.266818 0.55782,0.592928 0.23454,0.326111 0.54419,0.633232 0.6881,0.682488 0.32916,0.112666 0.25161,0.391373 -0.16232,0.58338 -0.45391,0.210552 -0.41999,0.864504 0.0652,1.256395 0.70376,0.568465 1.12317,0.234471 0.80218,-0.638806 -0.1539,-0.418681 -0.13468,-0.484488 0.22996,-0.787618 0.54704,-0.454761 1.03268,-0.714383 1.13662,-0.607645 0.0478,0.04905 -0.05,0.464747 -0.21722,0.923759 -0.16724,0.459012 -0.30407,1.033012 -0.30407,1.275555 0,0.586265 0.40819,0.58461 1.3771,-0.0056 0.90311,-0.550119 1.3123,-0.589588 1.15741,-0.111643 -0.0597,0.18421 -0.10958,0.513128 -0.11085,0.730926 -0.001,0.261878 -0.11777,0.459458 -0.34324,0.583368 -0.51346,0.282188 -0.41189,0.553426 0.27514,0.734769 0.33884,0.08944 0.6813,0.184416 0.76103,0.211064 0.0797,0.02665 -0.16798,0.189482 -0.55045,0.361854 -0.38248,0.172373 -0.68187,0.398158 -0.66531,0.501744 0.0166,0.103588 -0.0512,0.389299 -0.15063,0.634909 -0.60805,1.50231 -0.92326,2.48029 -1.03153,3.20042 -0.0677,0.4503 -0.21783,1.32111 -0.33362,1.93514 -0.1158,0.61404 -0.17721,1.1725 -0.13648,1.24104 0.0407,0.0685 0.21347,0.0841 0.38386,0.0345 0.17039,-0.0496 1.32087,-0.29391 2.55664,-0.54295 z m 4.26337,-6.698257 c 0.66921,-0.816699 0.39139,-1.54863 -0.46976,-1.237631 -0.4093,0.147814 -0.84806,1.068282 -0.69916,1.466747 0.14509,0.388271 0.76214,0.267321 1.16892,-0.229116 z m 1.911147,-4.231746 c 0.179211,-0.280868 0.197792,-0.422546 0.07529,-0.574118 -0.09023,-0.11165 -0.123973,-0.399724 -0.07579,-0.647128 0.0713,-0.366074 0.01599,-0.503131 -0.308937,-0.765595 -0.49942,-0.403407 -0.79433,-0.402968 -1.29559,0.0019 -0.35346,0.285515 -0.39007,0.395416 -0.32603,0.978852 0.0508,0.463141 0.17191,0.730823 0.40999,0.906443 0.77862,0.574364 1.200512,0.601994 1.521062,0.09962 z m -19.177897,-3.25138 c -0.0296,-1.61147 -0.22391,-2.627723 -0.50244,-2.627723 -0.14807,0 -0.0388,3.927313 0.12601,4.527169 0.077,0.280426 0.0807,0.280426 0.24215,0 0.10042,-0.174417 0.15245,-0.910388 0.13428,-1.899446 z m -18.73149,-3.485669 c -0.0851,-0.797135 -0.21107,-1.9201 -0.27993,-2.495478 -0.15456,-1.29156 -0.79816,-3.951523 -0.86713,-3.583793 -0.0277,0.147986 0.0208,0.559827 0.10798,0.915204 0.0871,0.355378 0.15844,0.926936 0.15844,1.27013 0,0.605833 0.17069,1.894315 0.43229,3.263313 0.0704,0.368421 0.21186,1.138756 0.31434,1.711855 0.24751,1.384078 0.32794,0.735145 0.13401,-1.081231 z m 25.25267,0.791599 c 0.25655,-0.118362 0.61918,-0.351755 0.80584,-0.518652 l 0.33939,-0.303448 -0.33173,-0.560561 c -0.18246,-0.308308 -0.40042,-0.613683 -0.48435,-0.67861 -0.20037,-0.154989 -1.37323,-0.0027 -1.62381,0.210899 -0.25372,0.21624 -0.25053,0.64278 0.007,0.861796 0.11126,0.09481 0.24467,0.404451 0.29649,0.688084 0.10506,0.575095 0.28097,0.628398 0.99172,0.300492 z m 1.98851,-0.165724 c 0,-0.127639 -0.0663,-0.189995 -0.14732,-0.138571 -0.081,0.05142 -0.1098,0.155856 -0.0639,0.232071 0.12426,0.20647 0.21124,0.167971 0.21124,-0.0935 z m 0.82552,-1.262969 c 0.23864,-0.08543 0.57026,-0.344729 0.73693,-0.57622 0.27454,-0.381324 0.2827,-0.450685 0.0869,-0.737814 -0.12853,-0.188435 -0.37445,-0.317846 -0.60658,-0.319201 -0.21473,-0.0012 -0.48559,-0.0641 -0.60191,-0.139656 -0.15466,-0.100461 -0.34163,1.49e-4 -0.69576,0.374658 l -0.48425,0.512035 0.3868,0.520763 c 0.42035,0.565937 0.52613,0.598754 1.17791,0.365435 z m -22.34589,-33.597901 c 0.0461,-0.225147 0.14454,-0.509835 0.21869,-0.632642 0.42703,-0.707318 0.71767,-1.364474 0.71767,-1.622711 0,-0.162173 0.0652,-0.336259 0.14496,-0.386858 0.19079,-0.121091 0.18774,-0.818713 -0.004,-0.818713 -0.0817,0 -0.21295,-0.173947 -0.29166,-0.386547 -0.0787,-0.212601 -0.2684,-0.420191 -0.42153,-0.461309 -0.15312,-0.04112 -0.4363,-0.319328 -0.62929,-0.618239 -0.26128,-0.404675 -0.51367,-0.588391 -0.98823,-0.719353 -1.21991,-0.336647 -1.39533,-0.349798 -1.58216,-0.118625 -0.3303,0.40869 0.34955,2.695224 1.30469,4.38807 0.42137,0.74682 1.19609,1.786283 1.33132,1.786283 0.0634,0 0.153,-0.18421 0.19913,-0.409356 z m -6.28972,-7.483799 c 0.59316,-0.169183 0.77615,-0.470857 0.54947,-0.905809 -0.0839,-0.160906 -0.1129,-0.420569 -0.0645,-0.577031 0.10767,-0.348368 -0.4149,-0.935451 -0.76933,-0.864309 -0.16792,0.0337 -0.23125,0.168001 -0.20172,0.427762 0.037,0.325482 -0.0322,0.398231 -0.49315,0.518237 -0.80932,0.210713 -0.93991,0.549517 -0.42469,1.10176 0.46001,0.493065 0.61161,0.525394 1.40397,0.29939 z m -2.63077,-1.445413 c -0.15961,-0.305805 -0.2902,-0.611918 -0.2902,-0.680251 0,-0.188845 -0.88809,-1.473942 -0.96443,-1.395554 -0.16548,0.169929 1.16176,2.631814 1.41885,2.631814 0.0693,0 -0.005,-0.250204 -0.16422,-0.556009 z m 4.85912,-2.134159 c 0.14846,-0.480334 -0.0447,-1.059105 -0.33465,-1.002658 -0.30249,0.05889 -0.41525,0.791823 -0.16874,1.096831 0.23962,0.2965 0.39142,0.268102 0.50339,-0.09417 z m -6.53068,-1.198329 c -0.42886,-1.199317 -0.50452,-1.687502 -0.41243,-2.661208 0.0966,-1.0213384 0.54165,-2.1160314 1.05333,-2.5908534 0.16807,-0.155963 0.30559,-0.340174 0.30559,-0.409357 0,-0.27394 -0.35054,-0.09856 -0.87076,0.43565 -0.39476,0.405383 -0.63359,0.850162 -0.85924,1.600212 -0.37629,1.2507584 -0.32067,1.7434974 0.37334,3.3073494 0.53014,1.194624 0.79782,1.402286 0.41017,0.318207 z m 1.91467,-1.544781 c 0.1883,-0.368543 0.34056,-1.5276234 0.23705,-1.8046134 -0.13564,-0.362991 -0.41729,-0.218915 -0.603,0.308464 -0.12579,0.3572324 -0.14803,0.8666774 -0.0731,1.6746414 0.0888,0.95784 0.12338,1.069971 0.19732,0.640221 0.0493,-0.286549 0.15808,-0.65497 0.24174,-0.818713 z m 25.77654,8.343257 c -1.13684,-0.244236 -1.65372,-0.468337 -1.76461,-0.765063 -0.10784,-0.288587 0.34321,-1.662535 1.22947,-3.745124 l 0.64931,-1.525783 h 0.79898 c 1.17256,0 1.64836,-0.419935 2.06328,-1.821043 0.17618,-0.594917 0.38121,-1.148653 0.45561,-1.230524 0.15089,-0.166031 0.0681,1.567133 -0.10124,2.119402 -0.0728,0.237506 -0.035,0.359573 0.13174,0.425283 0.12863,0.05069 0.23388,0.253191 0.23388,0.450002 0,0.641487 0.60485,1.700117 1.33512,2.336798 0.76722,0.668882 1.17931,1.349482 1.3282,2.193614 0.12387,0.702232 -0.32076,1.24217 -0.94537,1.148032 -0.23073,-0.03477 -1.02075,0.09284 -1.7556,0.283599 -1.47077,0.381787 -2.34505,0.413044 -3.65877,0.130807 z m 0.72479,-7.375683 c -0.0493,-0.08187 -0.2086,-0.148857 -0.35405,-0.148857 -0.2718,0 -0.5201,-0.578592 -0.32976,-0.768398 0.0572,-0.05702 0.26705,-0.142148 0.46637,-0.189168 0.30949,-0.07301 0.39849,-0.0057 0.60965,0.460913 0.136,0.300521 0.21369,0.602196 0.17265,0.670386 -0.10307,0.171243 -0.45619,0.155692 -0.56486,-0.02488 z m 9.22763,7.45e-4 c -1.10676,-0.268705 -0.90526,-0.747811 0.30334,-0.72126 0.54057,0.01188 0.68855,0.06853 0.68855,0.263623 0,0.244724 -0.27195,0.620266 -0.42762,0.590514 -0.0438,-0.0084 -0.29777,-0.06817 -0.56427,-0.132877 z m -4.54024,-0.622268 c -0.23649,-0.259967 -0.5287,-0.668716 -0.64937,-0.908331 -0.20511,-0.407315 -0.19879,-0.458175 0.0971,-0.7815984 0.34882,-0.381286 0.30311,-0.587469 -0.15768,-0.71121 -0.23359,-0.06273 -0.37075,0.03584 -0.59641,0.428604 -0.16118,0.280534 -0.31133,0.5100634 -0.33365,0.5100634 -0.0223,0 0.0215,-0.2988804 0.0974,-0.6641774 0.10201,-0.491145 0.088,-0.772306 -0.0538,-1.079213 -0.22501,-0.486999 -1.33143,-1.113437 -1.85877,-1.052405 -0.35626,0.04123 -0.3622,0.0636 -0.35098,1.31953 0.006,0.702673 0.0559,1.396533 0.1102,1.5419094 0.0932,0.249292 0.11996,0.250065 0.4714,0.01361 0.37569,-0.2527804 0.78408,-0.2189554 0.78408,0.06494 0,0.08444 -0.0981,0.153528 -0.21799,0.153528 -0.15639,0 -0.20759,0.135063 -0.1812,0.47801 0.0926,1.2033 -1.20609,0.23105 -1.77421,-1.3282264 -0.15998,-0.439116 -0.29088,-1.150896 -0.29088,-1.581743 0,-0.430847 -0.0568,-0.846995 -0.12625,-0.924773 -0.0694,-0.07778 -0.16852,-0.325624 -0.22019,-0.55077 -0.071,-0.309261 -0.0401,-0.409357 0.12624,-0.409357 0.12111,0 0.2202,-0.08973 0.2202,-0.199391 0,-0.212002 -0.58827,-0.544893 -0.96291,-0.544893 -0.30766,0 -1.09213,-0.590898 -1.03169,-0.777112 0.0416,-0.128064 0.84418,-0.189327 1.72344,-0.13155 0.33751,0.02218 1.42677,1.150023 1.5981,1.654701 0.12987,0.382577 0.61745,0.83451 2.28008,2.113361 0.28835,0.221794 0.60041,0.406004 0.69345,0.409356 0.0931,0.0033 0.47544,0.140905 0.84976,0.305671 0.57131,0.251478 0.65207,0.33484 0.50304,0.519238 -0.14453,0.178835 -0.12734,0.235844 0.0925,0.30672 0.75122,0.242215 1.21223,0.5310204 1.21223,0.7594164 0,0.518822 -0.3494,1.241047 -0.6004,1.241047 -0.13873,0 -0.29255,0.06698 -0.34183,0.148856 -0.17522,0.291148 -0.68728,0.141894 -1.11092,-0.323811 z m 5.61537,-0.86955 c -0.31298,-0.326108 -0.50202,-0.592924 -0.42007,-0.592924 0.27635,0 1.1317,0.678206 1.17997,0.935591 0.0748,0.398563 -0.14251,0.300595 -0.7599,-0.342667 z m -5.88155,-2.7612014 c 0,-0.28878 0.90356,-1.183551 1.43869,-1.424696 0.71322,-0.321398 0.92948,-0.229172 1.095,0.466978 0.15083,0.634379 -0.16688,0.84792 -1.41027,0.947884 -0.61788,0.04968 -1.12342,0.0541 -1.12342,0.0098 z"
         style="fill:#333333;stroke-width:0.14689444"
         sodipodi:nodetypes="ccccccccccccccccccscsccccccccccscccccssccccscsccccccscccccccccccsccccccsscsccssccccccccsccccccccssccccccccscccccccccccccccccccccccccccccccccscccccccccscscsccscscccccccccccccscccccccccccccccccccccssccccsccccccscsccsccsscsccsccscccsccccccssccscscssccscsccccsccccccccccccccsccccccccccsscsccsccscscccccscccccscccccccccsccsccscccscccsccscccccccccccscccccccsccccccsccccccccccccccscscccccscsccccsccsccsccsccscccccsscccccscccccccccccscsccccccccscccccsscccsccccscccccsccccccsccccscccccsccccscccccccccccccccsssccccccscccccccccccccscccccsccccccccsccccscccccccccccccccccccccscccscscssscccsccscccccccccccssccsscccccccsscsccccccccsccccccscccscscccscccccccsccsccsccsccccccccccccsccccccccccccccccscccccccsccccccccccccccccccccccccccccccscsccccccsccccccccscccscscccccccccscccccccccccscccsccccsccccscsccccccccscccccccsccccccssccsccsssccccccccssccccscccscccc"
         transform="translate(-5e-6)" /><path
         inkscape:connector-curvature="0"
         id="path45"
         d="m -175.84996,137.4835 0.26215,-0.33244 c 0.14418,-0.18286 0.26214,-0.42409 0.26214,-0.53611 0,-0.11201 0.1635,-0.70379 0.36332,-1.31508 0.4368,-1.33619 0.70159,-2.71125 1.07644,-5.58981 0.59689,-4.58369 0.58329,-4.73393 -0.47149,-5.20741 -0.33323,-0.14959 -1.70124,-0.81505 -3.04001,-1.47879 -1.33878,-0.66375 -2.46447,-1.20682 -2.50154,-1.20682 -0.0371,0 -2.01094,-0.98804 -4.38639,-2.19564 -2.37546,-1.2076 -5.35577,-2.66454 -6.62292,-3.23764 -2.45572,-1.11066 -5.4175,-2.77538 -6.39033,-3.5918 -1.00839,-0.84626 -1.63391,-2.43235 -2.39021,-6.06073 -0.47463,-2.27701 -0.49786,-3.02619 -0.12534,-4.04231 0.45245,-1.23414 1.32819,-2.696338 2.52736,-4.219851 1.68175,-2.13659 1.85051,-2.45874 1.75533,-3.35086 -0.0449,-0.42091 -0.1168,-1.10022 -0.15977,-1.50958 -0.10327,-0.98376 0.36198,-1.9547 1.14126,-2.38171 0.29883,-0.16374 0.91422,-0.77338 1.36753,-1.35474 0.45332,-0.58137 1.12518,-1.41869 1.49303,-1.86071 0.92647,-1.11332 0.98838,-1.27473 1.09029,-2.84268 0.0648,-0.9963 0.17585,-1.54539 0.39603,-1.95752 0.29538,-0.55286 0.86929,-0.99019 1.29945,-0.99019 0.11409,0 0.39092,-0.2512 0.61518,-0.55822 0.53138,-0.72747 1.66439,-1.82349 1.88503,-1.82349 0.25651,0 0.64079,0.9336 0.64079,1.55679 0,0.71312 0.28653,1.86691 0.46362,1.86691 0.15714,0 0.01,-1.79904 -0.19288,-2.35418 -0.0692,-0.18954 -0.12578,-0.49457 -0.12578,-0.67785 0,-0.18327 -0.1741,-0.69198 -0.38689,-1.13047 -0.34467,-0.71029 -0.39951,-0.76219 -0.50268,-0.4758 -0.0637,0.1768 -0.19944,0.32237 -0.30166,0.32349 -0.10223,0.001 -0.34007,0.0444 -0.52853,0.0962 -0.3068,0.0843 -0.33212,0.0569 -0.24196,-0.26253 0.0554,-0.1962 0.26273,-0.50797 0.46078,-0.69282 0.25179,-0.23501 0.3323,-0.42599 0.26771,-0.63498 -0.13122,-0.42457 0.18895,-1.32675 0.67413,-1.8996 0.28253,-0.33357 0.41414,-0.65125 0.41414,-0.99961 0,-0.56387 0.56065,-1.34281 1.23211,-1.71183 0.36035,-0.19805 0.40531,-0.18749 0.6565,0.15419 l 0.26965,0.36679 0.29271,-0.67911 c 0.38905,-0.90264 0.76504,-1.23948 1.27239,-1.13988 0.85829,0.16848 3.02962,-0.83212 2.84982,-1.313278 -0.0732,-0.195762 0.19713,-1.55936 0.52005,-2.623714 0.24511,-0.807891 -0.61745,-0.996309 -1.2458,-0.272129 -0.30319,0.349431 -1.73268,1.19026 -2.02357,1.19026 -0.19613,0 0.022,-1.290641 0.37208,-2.202038 0.66618,-1.734052 1.93391,-3.219044 4.4105,-5.16638 0.62474,-0.491228 1.53679,-1.222009 2.0268,-1.623957 0.49,-0.401948 1.33122,-1.060433 1.86937,-1.463297 0.80602,-0.603389 0.97847,-0.806095 0.97847,-1.150151 0,-0.333185 -0.10552,-0.469084 -0.52166,-0.671866 -0.45638,-0.222395 -0.51006,-0.303672 -0.42904,-0.649602 0.0509,-0.217473 0.09,-0.479137 0.0868,-0.581476 -0.003,-0.102339 -0.009,-0.269803 -0.0118,-0.372142 -0.0111,-0.344954 0.24373,-1.374277 0.42662,-1.723486 0.0998,-0.190609 0.14218,-0.451787 0.0941,-0.580397 -0.0996,-0.26657 0.32942,-1.529183 0.51962,-1.529183 0.0689,0 0.12526,0.06699 0.12526,0.148857 0,0.245784 0.25149,0.167878 0.3604,-0.111643 0.23081,-0.592415 0.50619,-1.857182 0.43141,-1.981431 -0.0442,-0.0735 -0.0177,-0.253967 0.0589,-0.401048 0.0842,-0.1616 0.0876,-0.362395 0.009,-0.507437 -0.0861,-0.158072 -0.068,-0.293499 0.053,-0.396665 0.21677,-0.184742 1.56965,-0.272686 1.81355,-0.117891 0.12084,0.07669 0.14388,-0.02137 0.081,-0.344473 -0.10242,-0.525915 0.13106,-0.690951 0.68163,-0.481792 0.21592,0.08203 0.47286,0.07797 0.66185,-0.01045 0.20207,-0.09454 0.55224,-0.09124 1.01233,0.0095 0.45396,0.09943 0.76329,0.10302 0.87228,0.01014 0.0975,-0.08311 0.55983,-0.102788 1.09413,-0.04657 0.75489,0.07942 0.96105,0.05306 1.11964,-0.143165 0.1069,-0.13228 0.40308,-0.240509 0.65816,-0.240509 0.52213,0 1.74523,-0.388892 2.17845,-0.692655 0.15726,-0.110268 0.3949,-0.200487 0.52808,-0.200487 0.13319,0 0.2797,-0.100478 0.3256,-0.223285 0.0459,-0.122807 0.0203,-0.223286 -0.057,-0.223286 -0.0772,-7e-6 -0.14041,-0.06699 -0.14041,-0.148864 0,-0.08187 0.26784,-0.148857 0.5952,-0.148857 0.46746,0 0.65848,-0.08259 0.88998,-0.384812 0.24816,-0.323978 0.37177,-0.369976 0.78189,-0.290969 0.26792,0.05161 0.48712,0.03559 0.48712,-0.03562 0,-0.281592 2.6794,-1.366728 3.38384,-1.37043 0.28925,-0.0015 0.43482,-0.09098 0.48802,-0.29988 0.0417,-0.163743 0.12872,-0.297714 0.19338,-0.297714 0.0647,0 0.62471,-0.07243 1.24457,-0.160968 0.81291,-0.116107 1.2398,-0.258441 1.53176,-0.510713 0.22262,-0.19236 0.53558,-0.392381 0.69546,-0.444491 0.15988,-0.05211 0.2907,-0.177338 0.2907,-0.278285 0,-0.353594 1.44245,-1.855133 1.87608,-1.952938 0.23277,-0.0525 0.50094,-0.191623 0.59593,-0.309168 0.095,-0.117545 0.32084,-0.213717 0.50186,-0.213717 0.18103,0 0.36669,-0.100478 0.41258,-0.223285 0.0459,-0.122807 0.21155,-0.223286 0.36813,-0.223286 0.15807,0 0.32592,-0.133377 0.37738,-0.299875 0.13324,-0.431079 0.29266,-0.25878 0.57199,0.618194 0.13479,0.423178 0.61909,1.345247 1.07624,2.049045 0.45714,0.703797 0.94849,1.614559 1.09189,2.023916 0.68321,1.950325 1.1006,3.287728 1.1006,3.526528 0,0.144389 0.16114,0.702164 0.3581,1.239498 0.28935,0.789414 0.6665,1.33773 1.96456,2.856121 1.90071,2.223333 1.98537,2.357922 1.61216,2.563031 -0.37852,0.20803 -0.24014,0.83012 0.26719,1.201085 0.21909,0.160204 0.47879,0.490711 0.57711,0.734458 0.0983,0.243746 0.33524,0.548464 0.5265,0.677149 0.19125,0.128687 0.34773,0.332908 0.34773,0.453828 0,0.265254 0.45277,0.290795 0.69762,0.03935 0.13773,-0.141431 0.27736,-0.05309 0.64507,0.408103 0.25811,0.323733 0.76338,0.924096 1.12282,1.334142 0.35945,0.410046 0.80988,0.979988 1.00095,1.266537 0.19107,0.28655 0.42994,0.591469 0.53082,0.677599 0.41837,0.357203 4.47,5.832808 4.59041,6.203737 0.0319,0.09825 0.16585,0.124699 0.3213,0.06344 0.24621,-0.09702 0.25777,-0.227217 0.15106,-1.701422 -0.0636,-0.877998 -0.13427,-2.47535 -0.15715,-3.549672 -0.0253,-1.187501 -0.12919,-2.26717 -0.26502,-2.753853 -0.31026,-1.111647 -0.66391,-3.469505 -0.66461,-4.431029 -5.8e-4,-0.761236 -0.0419,-0.850559 -0.81011,-1.749069 -0.44524,-0.520774 -0.92436,-0.946864 -1.06472,-0.946864 -0.27022,0 -0.735,-0.44049 -0.735,-0.696592 0,-0.190122 1.2991,-1.955102 1.72939,-2.349586 0.31772,-0.291279 0.32123,-0.291036 0.98028,0.06799 0.81944,0.4464 1.82287,1.462637 2.47033,2.501846 0.27035,0.43392 0.66684,0.866142 0.88108,0.960497 0.21425,0.09435 0.41037,0.184959 0.43583,0.201343 0.0255,0.01639 -0.0347,0.162893 -0.13359,0.325571 -0.14635,0.240632 -0.13379,0.45842 0.0674,1.168137 0.58151,2.051832 0.65404,2.441915 0.74342,3.998354 0.0746,1.298433 0.0469,1.772276 -0.13352,2.288784 -0.12516,0.358246 -0.22756,0.805076 -0.22756,0.992956 0,0.258359 -0.10574,0.36545 -0.43395,0.439475 -0.35091,0.07915 -0.53595,0.01154 -0.96703,-0.353357 -0.2932,-0.248177 -0.58715,-0.416915 -0.65323,-0.374976 -0.18158,0.115242 -0.14537,0.792777 0.11168,2.089546 0.29122,1.469114 0.74249,2.057113 1.47105,1.916759 0.93052,-0.179262 2.37112,-1.366947 2.89242,-2.384622 0.22281,-0.43496 0.44568,-0.662948 0.6526,-0.667577 0.23959,-0.0054 0.40487,1.25598 0.41909,3.198145 0.0224,3.057893 0.238,3.512432 0.82794,1.745393 0.31126,-0.932315 0.32489,-1.11363 0.19845,-2.638535 -0.15523,-1.872093 -0.42516,-2.690948 -0.9553,-2.897929 -0.33577,-0.131091 -0.36412,-0.215202 -0.36343,-1.078266 4.4e-4,-0.514845 -0.066,-1.60594 -0.14764,-2.424653 -0.16337,-1.638683 -0.26865,-4.261437 -0.16687,-4.156921 0.0355,0.03645 0.26503,0.48428 0.51007,0.995172 0.36912,0.769579 0.50769,0.928895 0.80793,0.928895 0.34159,0 0.36869,-0.05982 0.47213,-1.041998 0.13913,-1.321168 0.21673,-1.56389 0.40319,-1.261112 0.0742,0.120512 0.13594,0.375325 0.13717,0.566252 10e-4,0.190925 0.16251,0.827289 0.35843,1.414141 0.19591,0.58685 0.45588,1.837336 0.57769,2.778856 0.32686,2.526214 0.42163,2.965946 0.84215,3.907495 0.64767,1.450154 0.78174,1.086713 0.48047,-1.302498 -0.0207,-0.163743 0.0224,-0.477176 0.0957,-0.69652 0.0906,-0.271211 0.0766,-0.507577 -0.0439,-0.738775 -0.11516,-0.220969 -0.18474,-1.164889 -0.19877,-2.696685 -0.0223,-2.434966 0.0244,-2.648196 0.59953,-2.734874 0.11854,-0.01787 0.33541,-0.143898 0.48194,-0.280071 0.14653,-0.136175 0.38543,-0.223949 0.53088,-0.195058 0.21003,0.04172 0.26446,0.192838 0.26446,0.734259 0,0.773645 0.24735,1.174446 0.72479,1.174446 0.17979,0 0.39918,0.08944 0.48753,0.198756 0.0884,0.109317 0.42249,0.287501 0.74254,0.395969 0.32005,0.108466 0.5819,0.251756 0.5819,0.31842 0,0.250718 0.79623,0.53287 1.18674,0.420532 0.2142,-0.06162 0.4258,-0.07472 0.47022,-0.0291 0.0444,0.04561 0.20768,-0.03501 0.36279,-0.17917 0.17702,-0.164509 0.59784,-0.286519 1.13015,-0.327672 0.69477,-0.05371 0.99774,0.0048 1.67578,0.323547 0.45522,0.214013 0.82768,0.449914 0.82768,0.524223 0,0.07431 0.15689,0.175546 0.34865,0.224969 0.19175,0.04942 0.49671,0.251704 0.67768,0.449514 0.32343,0.35354 0.33343,0.354802 0.58795,0.07426 0.33948,-0.37419 0.67154,-0.269562 1.36883,0.4313 0.90064,0.905254 1.07571,1.128853 1.07571,1.373924 0,0.126383 0.0979,0.313176 0.21744,0.415097 0.11959,0.10192 0.21743,0.269384 0.21743,0.372142 0,0.102757 0.0978,0.270221 0.21744,0.372142 0.11959,0.101921 0.21744,0.31108 0.21744,0.464797 0,0.153719 0.0652,0.279488 0.14495,0.279488 0.15172,0 0.21892,-0.967785 0.16799,-2.418925 -0.0165,-0.47076 0.0254,-0.855928 0.0931,-0.855928 0.14507,0 0.75359,0.641368 0.75359,0.794285 0,0.05788 0.15791,0.355 0.35089,0.660262 0.19298,0.305262 0.43228,0.856457 0.53179,1.224878 0.0995,0.368421 0.235158,0.733493 0.301438,0.81127 0.0663,0.07778 0.12339,0.312228 0.12689,0.521 0.004,0.208771 0.1016,0.647527 0.21799,0.975013 0.25496,0.717299 0.67201,3.256127 0.72136,4.391279 0.0196,0.450292 0.0764,1.287612 0.12626,1.860712 0.0499,0.573099 0.11687,1.36295 0.14888,1.755225 0.032,0.392275 0.13029,0.8024 0.21837,0.911389 0.30022,0.371471 0.6272,4.050521 0.52807,5.941661 -0.056,1.06915 -0.0395,1.72735 0.0421,1.67558 0.0739,-0.0469 0.16611,-0.3369 0.20491,-0.64443 0.0739,-0.58612 0.47196,-2.62298 0.66193,-3.38743 0.0889,-0.35768 0.21743,0.11638 0.64581,2.38171 0.29416,1.55556 0.63393,3.6656 0.75504,4.68899 0.56833,4.80227 0.65304,17.64762 0.14039,21.286561 -0.35805,2.54148 -0.25467,3.58282 0.51395,5.17737 0.49841,1.034 0.8718,1.54979 1.83626,2.53662 1.26961,1.29904 1.82595,2.20813 1.99744,3.26389 0.18462,1.13661 -0.35852,0.99942 -2.00189,-0.50567 -1.02878,-0.94222 -1.67632,-1.27597 -2.63861,-1.35994 -0.63288,-0.0552 -0.79408,-0.01 -1.1959,0.33746 -0.25543,0.22072 -0.46442,0.4738 -0.46442,0.56241 0,0.0886 -0.10423,0.2794 -0.23163,0.42396 -0.33153,0.37618 -0.13336,0.57919 0.56634,0.58018 0.33414,4.5e-4 0.96629,0.0644 1.40479,0.14212 3.61321,0.64017 3.78699,0.72005 4.40857,2.02642 0.27844,0.58521 0.49167,0.81653 0.94703,1.02739 0.42754,0.19798 0.58767,0.36102 0.58767,0.59836 0,0.17943 0.13142,0.71849 0.29204,1.1979 0.36535,1.09048 0.53797,2.44979 0.31109,2.44979 -0.0889,0 -0.27061,-0.17088 -0.40388,-0.37975 -0.26558,-0.41622 -0.90613,-0.81114 -1.31548,-0.81103 -0.23841,7e-5 -0.25944,0.16346 -0.2443,1.89793 0.0117,1.33692 -0.0419,2.01665 -0.1812,2.29981 -0.31634,0.64297 -0.24593,0.99894 0.2531,1.2796 1.48286,0.834 2.00702,1.55189 2.01103,2.75433 0.004,1.08457 0.38495,1.63667 1.81981,2.63481 3.17428,2.20815 4.22782,3.50265 5.49642,6.75357 0.31532,0.80804 0.6904,1.54424 0.83351,1.63603 0.14311,0.0918 0.2602,0.21773 0.2602,0.27991 0,0.0622 -3.06042,0.11305 -6.80094,0.11305 -5.29901,0 -6.81961,-0.0411 -6.88549,-0.18607 -0.0676,-0.14885 -0.10147,-0.14885 -0.16912,0 -0.0654,0.14384 -1.27627,0.18607 -5.33445,0.18607 -2.887488,0 -5.311908,-0.0579 -5.387648,-0.12874 -0.23517,-0.21986 -1.80307,-0.45991 -3.54422,-0.54262 -3.9056,-0.18553 -4.24416,-0.22313 -4.71825,-0.52402 -0.44346,-0.28144 -1.22502,-0.40338 -1.22502,-0.19114 0,0.0561 0.14183,0.25709 0.31518,0.44657 0.41645,0.45522 0.15657,0.43962 -0.46014,-0.0276 -0.27016,-0.20468 -0.58445,-0.37214 -0.69843,-0.37214 -0.11398,0 -0.46563,0.30144 -0.78143,0.66986 l -0.57419,0.66985 h -2.21901 c -1.91558,0 -2.2314,-0.0331 -2.30951,-0.24214 -0.0498,-0.1332 -0.0326,-0.31741 0.0381,-0.40936 0.0707,-0.092 0.17264,-0.41841 0.22651,-0.72542 0.0833,-0.47471 0.059,-0.55854 -0.1623,-0.56039 -0.14313,-0.001 -0.55378,-0.10878 -0.91255,-0.23911 -0.85452,-0.31041 -3.1841,-0.65823 -5.00105,-0.7467 -0.79727,-0.0388 -1.58004,-0.12841 -1.73949,-0.19909 -0.87008,-0.38569 -2.08845,-0.24279 -2.84909,0.33417 -0.4338,0.32905 -0.43716,0.3425 -0.38872,1.56041 l 0.0489,1.22851 -23.9181,-0.0377 c -16.94822,-0.16288 -21.02145,-0.49733 -20.6015,-1.5641 z m 61.45878,-0.65014 c -0.27188,-0.47804 -0.63207,-0.73571 -0.63207,-0.45215 0,0.20216 0.74213,1.09764 0.83264,1.00469 0.0395,-0.0405 -0.0508,-0.28918 -0.20057,-0.55254 z m 0.67255,-0.58185 c 0,-0.26939 -0.0902,-0.48676 -0.22369,-0.53939 -0.3448,-0.13587 -0.40659,0.0368 -0.19163,0.53552 0.24975,0.57939 0.41532,0.58094 0.41532,0.004 z m -20.12923,-5.57508 c 0.42755,-0.2044 0.84483,-0.37228 0.9273,-0.37307 0.22457,-0.002 0.64733,-0.8131 0.64733,-1.24169 0,-0.45188 -0.53517,-0.92233 -1.32597,-1.16564 -0.6853,-0.21084 -1.04592,-0.57126 -0.57158,-0.57126 0.17178,0 0.52792,0.0925 0.79142,0.20557 0.2635,0.11305 1.07758,0.2542 1.80906,0.31365 1.58023,0.12844 1.91745,-0.0219 2.36137,-1.05243 0.33673,-0.7817 0.26034,-1.45311 -0.24542,-2.15706 l -0.34108,-0.47475 0.46435,-0.31839 c 1.03933,-0.71261 1.27075,-2.34347 0.49202,-3.46738 l -0.38367,-0.55373 0.42429,-0.42598 c 0.50597,-0.50799 0.70249,-1.49646 0.46164,-2.32198 -0.3466,-1.18796 -2.43154,-2.71628 -4.8833,-3.57959 -1.70045,-0.59876 -3.56068,-1.43144 -3.56303,-1.59489 -0.001,-0.0707 0.57299,-0.25027 1.27556,-0.39898 1.26135,-0.267 1.2847,-0.26661 1.85724,0.0307 1.2653,0.65707 3.64634,1.06127 4.57269,0.77627 0.73156,-0.22508 1.11868,-0.94339 0.84312,-1.56445 -0.19984,-0.45039 -0.35814,-0.5173 -1.60382,-0.67792 -0.63137,-0.0814 -1.12065,-0.23937 -1.38032,-0.44562 -0.22125,-0.17573 -0.81827,-0.65111 -1.32673,-1.0564 -1.14974,-0.91648 -1.43946,-0.93239 -4.10503,-0.22545 -1.06067,0.28129 -2.28725,0.55574 -2.72575,0.60988 -1.74998,0.21607 -1.79312,0.2434 -3.97627,2.51945 -2.11453,2.20452 -2.577,2.57197 -3.75299,2.98197 -0.56435,0.19675 -0.74094,0.20773 -0.91773,0.0571 -0.25624,-0.21839 -1.47651,-0.45526 -2.27589,-0.44179 -0.45736,0.008 -0.66289,0.11997 -1.13588,0.62046 -0.44781,0.47385 -0.5583,0.6895 -0.49209,0.96039 0.0751,0.30718 0.0285,0.35496 -0.38619,0.39601 -0.37109,0.0367 -0.52449,0.15557 -0.71999,0.5578 -0.13664,0.28111 -0.43018,0.66161 -0.65231,0.84554 -0.3625,0.30017 -0.3843,0.36746 -0.21278,0.65679 0.16244,0.274 0.15575,0.36246 -0.0446,0.58981 -0.12964,0.1471 -0.28526,0.45887 -0.34581,0.69281 -0.0766,0.29599 -0.21735,0.44101 -0.46275,0.47683 -0.63659,0.0929 -0.75044,0.30419 -0.6424,1.19212 0.0544,0.44696 0.13249,0.90262 0.17359,1.01259 0.0419,0.11203 -0.0199,0.19995 -0.14048,0.19995 -0.11836,0 -0.29914,0.10387 -0.40174,0.23082 -0.15759,0.19499 -0.13771,0.24393 0.12799,0.31529 0.19292,0.0518 0.42227,0.33453 0.59313,0.73119 0.26863,0.62362 0.64527,0.87769 1.18618,0.80018 0.38127,-0.0546 0.56308,0.007 0.5663,0.19259 0.009,0.49783 0.55834,0.88686 1.7441,1.23426 1.72458,0.50526 1.98705,0.48716 2.24835,-0.15505 0.1166,-0.28655 0.27015,-0.521 0.34123,-0.521 0.0711,0 0.30126,-0.30143 0.51151,-0.66985 0.21026,-0.36843 0.44477,-0.66986 0.52113,-0.66986 0.18432,0 0.17639,0.19962 -0.0158,0.39694 -0.24341,0.24996 -0.55751,2.02227 -0.40938,2.30991 0.071,0.13789 0.12912,0.36602 0.12912,0.50695 0,0.64811 1.45276,1.88299 2.4291,2.0648 0.19836,0.0369 0.47195,0.17058 0.60797,0.29698 0.13602,0.12641 0.38014,0.22984 0.5425,0.22984 0.16235,0 0.46105,0.13397 0.66376,0.29771 0.20271,0.16375 0.50198,0.29772 0.66504,0.29772 0.16306,0 0.46317,0.078 0.66692,0.17333 0.287,0.13428 0.44791,0.13075 0.71429,-0.0156 0.18911,-0.10394 0.71783,-0.2008 1.17493,-0.21524 0.66475,-0.021 0.8832,-0.0923 1.09149,-0.35651 0.29095,-0.36895 0.57598,-0.391 1.7403,-0.13461 0.79906,0.17596 1.31589,0.53501 1.49134,1.03602 0.22447,0.64102 1.28653,0.65581 2.58309,0.036 z m -19.22682,-9.60366 c 0.0493,-0.0819 0.15482,-0.14885 0.23454,-0.14885 0.0797,0 0.10465,0.067 0.0554,0.14885 -0.0493,0.0819 -0.15481,0.14886 -0.23454,0.14886 -0.0797,0 -0.10465,-0.067 -0.0554,-0.14886 z m 3.08941,-0.54825 c 0.10464,-0.043 0.22967,-0.0377 0.27784,0.0117 0.0482,0.0495 -0.0374,0.0847 -0.19026,0.0782 -0.16887,-0.007 -0.20322,-0.0424 -0.0876,-0.0899 z m -3.45181,-2.41192 c 0,-0.0726 0.22186,-0.24001 0.49302,-0.37215 0.59581,-0.29033 1.29812,-0.32182 1.20795,-0.0542 -0.0362,0.10754 -0.2458,0.16767 -0.49653,0.14248 -0.25848,-0.026 -0.50888,0.0493 -0.61945,0.18608 -0.20059,0.24819 -0.58499,0.31243 -0.58499,0.0978 z m 3.04412,-0.16582 c -0.17509,-0.33596 -0.10768,-0.36737 0.3035,-0.14139 0.15645,0.086 0.24616,0.21995 0.19936,0.29771 -0.1363,0.22647 -0.33566,0.16449 -0.50286,-0.15632 z m -22.65151,-17.11855 c 0.0539,-3.615181 -0.29155,-4.577601 -1.20271,-3.350871 -0.41691,0.5613 -0.41673,0.55247 -0.0537,2.570661 0.15702,0.87307 0.1598,1.21313 0.0145,1.77106 -0.16791,0.6447 -0.15818,0.71421 0.1467,1.04746 0.21289,0.23271 0.45433,0.34163 0.69371,0.31296 l 0.36718,-0.044 z m 51.64307,-20.467851 c 0,-0.1228 -0.0978,-0.22328 -0.21743,-0.22328 -0.37725,0 -0.255,0.29337 0.1812,0.43482 0.0199,0.006 0.0362,-0.0887 0.0362,-0.21154 z m 15.80041,-3.50416 c 2.02855,-0.37354 2.31932,-0.53877 2.31932,-1.31794 v -0.57282 l 0.72218,-0.0984 c 0.51055,-0.0695 0.76777,-0.18586 0.87778,-0.39694 0.16229,-0.3114 0.0658,-0.88275 -0.14902,-0.88275 -0.0682,0 -0.32477,-0.17341 -0.57007,-0.38537 -0.30739,-0.26561 -0.44599,-0.51824 -0.44599,-0.81292 0,-0.42336 -0.47114,-1.03456 -0.79748,-1.03456 -0.0896,0 -0.33812,-0.18771 -0.55217,-0.41714 -0.30228,-0.324 -0.35041,-0.456955 -0.21556,-0.595431 0.25702,-0.263932 0.51909,-0.216718 0.62063,0.111816 0.0493,0.159555 0.20817,0.328725 0.35301,0.375935 0.78851,0.25699 1.94175,-1.005977 1.683,-1.843139 -0.12361,-0.39994 -0.45124,-0.488488 -1.12159,-0.303126 -0.31842,0.08804 -0.61209,0.126046 -0.6526,0.08444 -0.0405,-0.0416 0.0663,-0.277493 0.23738,-0.5242 0.17106,-0.246706 0.37648,-0.641344 0.45646,-0.876972 0.18663,-0.549762 0.95027,-0.938795 1.62278,-0.826725 0.41775,0.06961 0.54429,0.01871 0.80745,-0.324807 0.46207,-0.603209 0.35778,-1.860475 -0.20432,-2.46292 -0.22503,-0.241202 -0.5598,-0.436008 -0.74925,-0.436008 -0.54007,0 -1.15349,0.399566 -1.30711,0.851405 -0.12503,0.367762 -0.21158,0.413879 -0.77674,0.413879 -0.54923,0 -0.64236,-0.04571 -0.68236,-0.334928 -0.0255,-0.184211 0.007,-0.335262 0.0725,-0.335668 0.0653,-4.47e-4 0.307,-0.155378 0.53701,-0.344381 0.36543,-0.300283 0.3968,-0.384708 0.24857,-0.669117 -0.0933,-0.179011 -0.29779,-0.325475 -0.45444,-0.325475 -0.1927,0 -0.28481,-0.101103 -0.28481,-0.312599 0,-0.17193 -0.22587,-0.544544 -0.50194,-0.828032 -0.4241,-0.435515 -0.58705,-0.508215 -1.05094,-0.468899 -0.51865,0.04396 -0.54783,0.07329 -0.52764,0.530318 0.0118,0.266081 -0.0372,0.483785 -0.10872,0.483785 -0.13757,0 -0.14719,-0.02689 -0.2015,-0.562925 -0.0424,-0.418921 -0.77834,-1.213608 -1.12904,-1.219223 -0.3144,-0.005 -0.43787,0.293294 -0.45418,1.097418 -0.012,0.593132 -0.0274,0.611584 -0.54647,0.65592 -0.53299,0.04552 -0.53377,0.04473 -0.37651,-0.383106 0.34529,-0.939369 -0.37574,-1.762437 -1.37253,-1.566764 -0.37624,0.07386 -0.39859,0.04761 -0.39859,-0.467849 0,-0.470463 0.059,-0.567226 0.42617,-0.698657 0.23439,-0.08391 0.60283,-0.390403 0.81874,-0.6811 0.49015,-0.659894 0.36817,-1.232273 -0.30527,-1.432508 -0.65244,-0.193992 -1.66443,-0.719936 -1.66443,-0.865026 0,-0.07049 -0.0978,-0.128171 -0.21744,-0.128171 -0.24616,0 -0.29156,0.233099 -0.0725,0.372142 0.0797,0.0506 0.14496,0.281189 0.14496,0.512424 0,0.295234 -0.0863,0.443605 -0.28992,0.498277 -0.38448,0.103249 -0.37776,0.660368 0.0131,1.087637 0.16667,0.182183 0.27478,0.454442 0.24025,0.605021 -0.052,0.226986 -0.0908,0.203814 -0.22696,-0.135577 -0.0903,-0.225146 -0.23104,-0.409357 -0.31274,-0.409357 -0.0817,0 -0.14854,-0.103896 -0.14854,-0.230881 0,-0.126984 -0.21743,-0.324172 -0.48318,-0.438196 -0.89844,-0.385489 -2.12606,0.221633 -2.12606,1.051443 0,0.179007 0.0978,0.408855 0.21743,0.510776 0.11959,0.101921 0.21744,0.344573 0.21744,0.539225 0,0.194655 0.13046,0.487888 0.28992,0.65163 0.49001,0.503193 0.37728,0.840746 -0.31897,0.955074 -0.33488,0.05499 -0.69365,0.172232 -0.79726,0.260538 -0.13567,0.11562 -0.24653,0.111006 -0.39613,-0.01649 -0.1631,-0.138999 -0.28769,-0.123244 -0.57983,0.07332 -0.42712,0.287386 -0.5189,1.096554 -0.15916,1.403148 0.11712,0.09981 0.37964,0.742672 0.58337,1.428577 0.30355,1.021968 0.33867,1.299311 0.19453,1.536328 -0.14343,0.235836 -0.12487,0.405448 0.10054,0.918742 0.355,0.808436 0.57316,1.024719 0.93548,0.927422 0.34444,-0.09249 0.36937,-0.352469 0.0875,-0.912279 -0.11275,-0.22391 -0.25113,-0.672736 -0.30752,-0.997393 l -0.1025,-0.590283 0.54053,0.637776 c 0.6944,0.819334 1.61888,1.326717 1.98709,1.090581 0.16859,-0.108118 0.26178,-0.113663 0.26178,-0.01558 0,0.255765 0.9145,0.742213 1.39643,0.742802 0.33203,4.47e-4 0.4746,0.08064 0.53002,0.298271 0.0951,0.373343 0.33949,0.374441 1.17813,0.0053 0.69965,-0.307974 0.79129,-0.264621 0.44228,0.209232 -0.29133,0.395531 -0.26722,0.674404 0.0923,1.067362 0.30898,0.337743 0.27108,0.653256 -0.0785,0.653256 -0.10512,0 -0.27144,0.09937 -0.3696,0.220819 -0.14813,0.183293 -0.11162,0.246912 0.21486,0.374383 0.46069,0.17987 0.43593,0.44269 -0.1683,1.78651 -0.36239,0.80597 -0.43567,1.15635 -0.78883,3.77178 -0.14043,1.03994 -0.14033,1.33932 4.3e-4,1.42867 0.0979,0.0622 0.67957,-0.01 1.29247,-0.16038 0.61293,-0.15038 1.86455,-0.41155 2.78141,-0.58038 z m -7.16221,-15.155434 c -0.0476,-0.07917 -0.0484,-0.246248 -0.002,-0.371295 0.1052,-0.281523 0.71325,-0.09606 0.71325,0.217543 0,0.240074 -0.58372,0.366197 -0.71158,0.153752 z m 0.72674,-1.221663 c -0.39478,-0.454993 -0.42035,-0.88428 -0.0527,-0.88428 0.27244,0 0.77646,1.012568 0.59618,1.197701 -0.0948,0.09739 -0.27941,-0.009 -0.54351,-0.313421 z m 2.52161,9.560515 c 0,-0.193824 -0.17232,-0.322728 -0.3125,-0.233764 -0.14992,0.09515 -0.0207,0.357811 0.17609,0.357811 0.075,0 0.13641,-0.05582 0.13641,-0.124047 z m -0.38424,-0.689898 c 0.0449,-0.120186 0.0252,-0.254375 -0.0439,-0.298198 -0.19722,-0.125171 -0.58658,0.08017 -0.58658,0.309356 0,0.276152 0.52659,0.266832 0.63047,-0.01116 z m -45.54759,-0.549448 c 0.77742,-0.239187 1.25486,-0.927561 1.37572,-1.983535 0.0608,-0.531277 0.23223,-1.046427 0.46279,-1.390684 0.20142,-0.300744 0.41417,-0.814752 0.47279,-1.142237 1.14014,-6.369817 1.3791,-8.953125 0.94321,-10.1967 l -0.18262,-0.520999 -1.0519,-0.04401 c -0.65993,-0.02761 -1.12927,0.02191 -1.2595,0.132909 -0.11418,0.09731 -0.56819,0.176921 -1.00892,0.176921 -0.77374,0 -0.81062,0.01848 -1.07156,0.536949 -0.14863,0.295322 -0.39694,0.615352 -0.55179,0.711182 -0.15485,0.09583 -0.32181,0.380986 -0.37103,0.633684 -0.0797,0.409367 -0.13987,0.455281 -0.5517,0.421195 -0.44584,-0.0369 -0.4712,-0.0077 -0.71552,0.825222 -0.13932,0.474913 -0.30143,0.977306 -0.36025,1.116427 -0.0588,0.139121 -0.12874,0.366083 -0.15538,0.504359 -0.0266,0.138278 -0.20733,0.414569 -0.40151,0.613981 -0.3343,0.343287 -0.35064,0.441516 -0.30733,1.847103 0.0306,0.991456 0.123,1.637944 0.27833,1.94641 0.12792,0.254031 0.23259,0.585008 0.23259,0.735505 0,0.150498 0.12158,0.518526 0.27018,0.817841 0.14861,0.299316 0.31274,0.765632 0.36474,1.036259 0.11739,0.610926 1.22962,2.326188 1.58308,2.441402 0.14359,0.04681 0.45569,0.280457 0.69355,0.519228 0.48858,0.490455 0.53687,0.500083 1.31203,0.261592 z m 42.88771,-0.339676 c 0,-0.0361 -0.0652,-0.107043 -0.14496,-0.157643 -0.0797,-0.0506 -0.14495,-0.02106 -0.14495,0.06564 0,0.0867 0.0652,0.157643 0.14495,0.157643 0.0797,0 0.14496,-0.02954 0.14496,-0.06564 z m -33.08662,-1.421295 c 0.28057,-0.175669 0.47111,-0.416265 0.47111,-0.594871 0,-0.164947 0.068,-0.299902 0.15117,-0.299902 0.0831,0 0.45822,-0.284689 0.83351,-0.632642 0.76767,-0.711758 0.94874,-0.834829 2.02319,-1.375112 0.53645,-0.26975 0.76103,-0.469677 0.76103,-0.677488 0,-0.162146 0.13047,-0.409521 0.28992,-0.549722 0.15945,-0.1402 0.28991,-0.403534 0.28991,-0.585184 0,-0.181652 0.0647,-0.371328 0.14375,-0.421504 0.0792,-0.05029 0.14297,-0.739007 0.14203,-1.534569 -0.002,-1.336629 0.0547,-2.230316 0.15172,-2.41091 0.0357,-0.06646 0.19447,0.923413 0.34615,2.158425 0.0508,0.413575 0.28708,1.369536 0.69908,2.828282 0.0925,0.327485 0.28595,0.755179 0.42991,0.95043 0.14395,0.195252 0.26173,0.465777 0.26173,0.601168 0,0.13539 0.12307,0.494052 0.27349,0.797025 0.15042,0.302974 0.31477,0.776839 0.36523,1.053037 0.0505,0.276197 0.21678,0.618377 0.3696,0.760402 0.26827,0.249311 0.28131,0.239377 0.37761,-0.287751 0.0549,-0.300286 -0.006,-1.669064 -0.13574,-3.041729 -0.28675,-3.039084 -0.28646,-2.991008 -0.018,-2.991008 0.27528,0 0.28589,-0.428938 0.0133,-0.536367 -0.36576,-0.144132 -0.57108,-0.887122 -0.3914,-1.4164 0.0884,-0.260354 0.16069,-0.637108 0.16069,-0.837234 0,-0.228731 0.0995,-0.390589 0.26794,-0.435819 0.23555,-0.06325 0.26793,-0.233594 0.26777,-1.408653 l -1.4e-4,-1.336698 -0.73888,0.04566 -0.73892,0.04566 -0.37774,-1.562998 c -0.69177,-2.862409 -0.85749,-3.3108 -1.44832,-3.918677 -0.73568,-0.756919 -1.19808,-0.721791 -1.26365,0.096 -0.0251,0.31273 0.0368,0.670523 0.13745,0.795092 0.23379,0.289277 0.17556,1.250933 -0.0925,1.527832 -0.17744,0.183278 -0.24551,0.115863 -0.50097,-0.496127 -0.1626,-0.389524 -0.29563,-0.76633 -0.29563,-0.837347 0,-0.07102 -0.11107,-0.19295 -0.24683,-0.270966 -0.20725,-0.119102 -0.21627,-0.179658 -0.0563,-0.377644 0.10481,-0.129687 0.15183,-0.339469 0.10448,-0.466182 -0.0756,-0.202221 -0.13515,-0.204731 -0.48733,-0.02053 -0.22068,0.115421 -0.77889,0.321359 -1.24046,0.457639 -0.63068,0.186209 -0.88089,0.34172 -1.00695,0.625821 -0.12175,0.274415 -0.2538,0.361146 -0.48171,0.316407 -0.29001,-0.05693 -0.75095,0.388625 -0.67913,0.656477 0.0409,0.152364 -0.28976,0.373457 -0.71373,0.477299 -0.31045,0.07604 -0.44212,0.0166 -0.66767,-0.301344 -0.21398,-0.301651 -0.3464,-0.36712 -0.55551,-0.27465 -0.33404,0.147712 -0.45338,0.172868 -0.95801,0.201942 -0.55648,0.03206 -0.68724,0.38513 -0.52751,1.424353 0.0884,0.575384 0.0853,0.912429 -0.009,0.972263 -0.17479,0.11093 0.0364,1.846999 0.34506,2.836049 0.19487,0.624506 0.53768,1.936112 1.45538,5.568379 0.73273,2.900141 1.51079,5.000978 1.85175,4.999906 0.0973,-2.97e-4 0.38895,-0.133292 0.64806,-0.295525 z m 4.40824,-13.331331 c -0.24321,-0.548143 -0.20744,-0.811709 0.11017,-0.811709 0.19096,0 0.30815,0.139116 0.37314,0.442939 0.16143,0.754794 -0.19228,1.024686 -0.48331,0.36877 z m -22.87837,10.017633 c 0.11762,-1.438694 -0.36154,-5.619349 -0.64405,-5.619349 -0.16109,0 0.11693,4.302851 0.32323,5.00248 0.0897,0.304205 0.0832,0.605742 -0.0189,0.881597 -0.16067,0.43397 -0.10368,0.814484 0.12198,0.814484 0.0712,0 0.16922,-0.485645 0.21774,-1.079212 z m 48.6576,-2.791068 c 0,-0.08187 -0.0691,-0.148857 -0.15352,-0.148857 -0.0844,0 -0.1132,0.06699 -0.0639,0.148857 0.0493,0.08187 0.11836,0.148857 0.15352,0.148857 0.0352,0 0.0639,-0.06699 0.0639,-0.148857 z m -19.13444,-4.676818 c 0,-0.265839 -0.22153,-0.533174 -0.44183,-0.533174 -0.30512,0 -0.48681,0.228278 -0.35544,0.44657 0.0849,0.14109 0.79727,0.218469 0.79727,0.0866 z m -7.65377,-6.368366 c -0.093,-0.09552 -0.21724,-0.124251 -0.27606,-0.06385 -0.0588,0.0604 -0.0129,0.169514 0.10211,0.242482 0.27072,0.171815 0.39297,0.04628 0.17395,-0.178628 z m 29.57864,89.09651 c -0.0997,-0.0413 -0.18119,-0.14059 -0.18119,-0.22066 0,-0.15478 1.15252,-0.0292 1.66701,0.18158 0.19663,0.0806 0.0334,0.11804 -0.50735,0.11648 -0.4385,-0.001 -0.87881,-0.0361 -0.97847,-0.0774 z m 2.39181,-0.006 c 0.17938,-0.0355 0.47292,-0.0355 0.65231,0 0.17938,0.0355 0.0326,0.0645 -0.32616,0.0645 -0.35877,0 -0.50554,-0.029 -0.32615,-0.0645 z m 2.64548,-0.0479 c 0,-0.0994 0.34263,-0.11837 0.97846,-0.0541 1.30496,0.13193 1.32687,0.20707 0.0604,0.20707 -0.6147,-6e-5 -1.03886,-0.0625 -1.03886,-0.15305 z m -1.05095,-0.0946 c 0.0997,-0.0413 0.26274,-0.0413 0.3624,0 0.0997,0.0413 0.0181,0.0751 -0.1812,0.0751 -0.19932,0 -0.28085,-0.0338 -0.1812,-0.0751 z m 27.583668,-3.68272 c -0.1848,-0.49913 -0.18552,-0.53554 -0.0105,-0.53554 0.24275,0 0.4859,0.60781 0.31383,0.7845 -0.10736,0.11024 -0.19785,0.036 -0.30335,-0.24896 z m -7.19692,-18.66115 c -0.0886,-0.0602 -0.20682,-0.42805 -0.26272,-0.81755 -0.08,-0.55712 -0.0558,-0.72623 0.11313,-0.79281 0.31197,-0.12293 0.87835,0.31024 1.19493,0.91392 0.24026,0.45812 0.2475,0.54161 0.0576,0.66485 -0.25823,0.16764 -0.87651,0.18534 -1.10298,0.0316 z M -135.78846,54.670656 c -0.13952,-0.08345 -0.25368,-0.252831 -0.25368,-0.376401 0,-0.275887 0.23554,-0.143016 0.4392,0.247757 0.17187,0.32979 0.1621,0.336563 -0.18552,0.128644 z m 8.51627,-9.812634 c 0.0493,-0.08187 0.1999,-0.147831 0.33471,-0.146578 0.21125,0.002 0.21507,0.02222 0.0277,0.146578 -0.28388,0.188393 -0.47577,0.188393 -0.36239,0 z m 3.29779,-10.236634 c -0.17938,-0.03036 -0.32615,-0.15102 -0.32615,-0.268133 0,-0.262321 0.0187,-0.262519 0.50158,-0.0053 0.42559,0.226737 0.3397,0.3606 -0.17543,0.273416 z m 12.21889,-11.039621 c -0.14757,-0.245203 0.13177,-0.287928 0.50298,-0.07693 l 0.36058,0.20495 -0.39008,0.0053 c -0.21454,0.0029 -0.42761,-0.05708 -0.47348,-0.133296 z m -5.06159,-0.277894 c -0.24783,-0.411774 0.63052,-0.774391 1.87576,-0.774391 0.88617,0 0.93279,0.01773 0.93279,0.354782 0,0.242087 -0.1036,0.383291 -0.32615,0.444537 -0.48089,0.13234 -2.39935,0.113076 -2.4824,-0.02493 z m 3.34542,-0.194387 c 0.11466,-0.117739 0.23581,-0.119022 0.42763,-0.0045 0.23463,0.140049 0.2149,0.160313 -0.15998,0.164282 -0.31185,0.0033 -0.38431,-0.03995 -0.26765,-0.159755 z m -28.78863,-1.850468 c -0.24744,-0.289397 -0.44989,-0.580411 -0.44989,-0.646695 0,-0.06628 -0.32417,-0.500928 -0.72037,-0.965875 -1.12913,-1.325016 -2.51447,-3.788226 -2.99966,-5.333551 -0.17934,-0.571189 -0.37282,-0.89827 -0.59246,-1.001593 -0.17939,-0.08438 -0.32616,-0.283693 -0.32616,-0.44291 0,-0.159216 -0.16308,-0.488504 -0.36239,-0.73175 -0.19932,-0.243247 -0.3624,-0.501441 -0.3624,-0.573767 0,-0.07232 -0.13046,-0.24621 -0.28991,-0.38641 -0.15946,-0.140201 -0.29196,-0.372792 -0.29445,-0.516867 -0.002,-0.144077 -0.16498,-0.596882 -0.36107,-1.00624 -0.1961,-0.409357 -0.35713,-0.928495 -0.35786,-1.153641 -7.3e-4,-0.225146 -0.0705,-0.409357 -0.15507,-0.409357 -0.10031,0 -0.13072,-0.375094 -0.0875,-1.079212 0.0365,-0.594284 0.002,-1.159565 -0.0756,-1.258035 -0.0996,-0.125644 0.0126,-0.33739 0.37741,-0.712033 0.28558,-0.293265 0.51924,-0.658992 0.51924,-0.812728 0,-0.320299 -0.77897,-1.050269 -1.12077,-1.050269 -0.20435,0 -0.20316,-0.02907 0.0111,-0.272221 0.30681,-0.348141 0.30319,-0.472063 -0.0138,-0.472069 -0.32367,-6e-6 -1.01281,-0.8795489 -1.05887,-1.3514308 -0.0194,-0.19822994 0.0129,-0.47443594 0.0717,-0.61378994 0.0588,-0.139355 0.0655,-0.322181 0.0148,-0.406281 -0.16927,-0.281249 0.20457,-0.77674116 0.51075,-0.67695114 0.35624,0.11610702 0.41795,-0.05283 0.46243,-1.26588212 l 0.0354,-0.965059 0.62145,-0.351638 c 0.48539,-0.274653 0.60226,-0.413735 0.53379,-0.635256 -0.0539,-0.174492 0.0413,-0.469541 0.24741,-0.766841 0.1843,-0.265774 0.31603,-0.568427 0.29274,-0.672563 -0.0233,-0.104135 0.16617,-0.305298 0.42102,-0.447029 0.61724,-0.343265 1.75342,-1.497821 1.97554,-2.007483 0.0979,-0.224748 0.27733,-0.408633 0.39863,-0.408633 0.28419,0 0.28642,-0.281101 0.003,-0.39274 -0.11958,-0.04713 -0.21743,-0.205321 -0.21743,-0.351545 0,-0.282221 -0.27425,-0.4465712 -0.7452,-0.4465712 -0.17313,0 -0.24723,-0.06543 -0.18715,-0.1652624 0.0581,-0.0965 0.3018,-0.1315462 0.58573,-0.08423 0.26745,0.04457 0.52175,0.02208 0.56512,-0.04998 0.13748,-0.2284274 1.28809,-0.1041504 1.64926,0.1781314 0.63405,0.4955624 1.01294,0.2295154 0.50078,-0.3516318 -0.32738,-0.371477 -0.20728,-0.440988 0.44323,-0.256541 0.66789,0.189374 0.95714,0.09453 0.95714,-0.313838 0,-0.446787 0.57966,-1.184748 1.10945,-1.41243 0.25933,-0.111451 0.49876,-0.347269 0.55331,-0.544979 0.27342,-0.990905 0.39716,-1.167231 0.81911,-1.167231 0.2295,0 0.41728,0.06699 0.41728,0.148857 0,0.08187 0.10118,0.148857 0.22484,0.148857 0.2393,0 0.64491,-0.835174 0.64491,-1.327927 0,-0.543988 0.31955,-1.036813 0.7327,-1.129997 0.46069,-0.103905 0.65406,-0.461503 0.41172,-0.761367 -0.12434,-0.153842 -0.12057,-0.259662 0.0152,-0.427703 0.25677,-0.317714 0.57983,-0.276245 0.57983,0.07443 0,0.163743 0.0673,0.297714 0.1495,0.297714 0.22478,0 0.35204,-0.461115 0.16077,-0.582507 -0.10307,-0.06541 0.0292,-0.201917 0.34619,-0.357119 0.65894,-0.322677 0.79312,-0.316299 0.79312,0.0377 0,0.498126 0.29711,0.507547 0.9203,0.02918 1.33007,-1.020978 2.4541,-1.29561 4.76596,-1.164462 0.89876,0.05099 2.02549,0.16843 2.50385,0.260988 0.47836,0.09256 1.48944,0.186309 2.24685,0.208335 0.82979,0.02413 1.60755,0.133995 1.95693,0.276432 0.31891,0.130012 0.72124,0.239325 0.89408,0.242919 0.17283,0.0036 0.62945,0.166574 1.0147,0.362178 0.38525,0.195605 1.05923,0.462232 1.49773,0.592505 0.4385,0.130273 1.09887,0.395604 1.46749,0.589626 0.53537,0.281785 0.64386,0.401139 0.53921,0.59317 -0.0792,0.145341 -0.0761,0.34546 0.008,0.506084 0.0763,0.146124 0.1768,0.390162 0.2233,0.542307 0.0802,0.262457 0.10366,0.263754 0.45803,0.02532 0.44411,-0.298819 0.57776,-0.221148 0.35498,0.206304 -0.14959,0.287037 -0.12377,0.310463 0.3421,0.310463 0.27715,0 0.54527,0.06873 0.59582,0.152738 0.0506,0.084 0.2338,0.140573 0.40719,0.125705 0.72786,-0.06241 0.94693,0.03317 1.23829,0.54027 0.30872,0.537319 0.80708,0.694385 1.13495,0.357697 0.11539,-0.118499 0.4333,0.120591 1.1587,0.871443 0.54982,0.56911 1.14596,1.115138 1.32475,1.213396 0.17879,0.09826 0.3632,0.374463 0.40981,0.613788 0.0466,0.2393264 0.168,0.5060848 0.26975,0.592802 0.10176,0.08672 0.15051,0.2931352 0.10835,0.4587042 -0.0558,0.21914 0.007,0.323614 0.2324,0.38403 0.37535,0.100798 0.41452,0.619579 0.0554,0.733541 -0.53207,0.168836 -0.68562,0.325545 -0.71594,0.730668 -0.0172,0.230157 -0.11596,0.467786 -0.2194,0.528063 -0.86112,0.501778 -1.24006,0.811584 -1.4482,1.184012 -0.41917,0.75001 -0.84902,0.725247 -1.96319,-0.113098 -0.99386,-0.747823 -2.01568,-1.334052 -2.9374,-1.685215 -0.60576,-0.230785 -5.12004,-0.326402 -6.48802,-0.137421 -1.09409,0.151144 -2.98542,1.034923 -3.24735,1.517415 -0.11391,0.20983 -0.19255,0.945561 -0.20362,1.904873 -0.0245,2.123245 -0.31549,2.9771381 -1.01452,2.9771381 -0.18485,0 -0.37699,0.06794 -0.42696,0.15098502 -0.05,0.08304 -0.34263,0.28287414 -0.65033,0.44407414 -0.3077,0.1612 -0.60169,0.42975 -0.65332,0.596779 -0.052,0.168386 -0.46038,0.498664 -0.91652,0.74131194 -1.17946,0.6274218 -1.37957,0.8355828 -2.04153,2.1236568 -0.60742,1.181948 -0.73212,1.787509 -0.41191,2.000327 0.0997,0.06623 1.68151,0.13578 3.51522,0.154542 1.83372,0.01876 3.59496,0.04851 3.91387,0.06611 0.3189,0.0176 1.30157,-0.02325 2.1837,-0.09077 l 1.60388,-0.12276 -0.0606,0.533219 c -0.0582,0.512044 -0.0922,0.540484 -0.85687,0.716204 -0.58713,0.134928 -0.9489,0.141144 -1.3775,0.02367 -0.43172,-0.118332 -0.95952,-0.107321 -2.05163,0.0428 -0.8087,0.111165 -2.41622,0.206498 -3.57226,0.211849 -1.15604,0.0053 -2.78682,0.08129 -3.62395,0.168752 -1.55698,0.162669 -2.06786,0.210988 -3.84138,0.363315 -0.55809,0.04793 -1.07668,0.148718 -1.15242,0.223966 -0.36741,0.365022 -1.12786,0.08895 -1.87863,-0.682011 -0.18613,-0.191146 -0.59138,-0.419662 -0.90054,-0.507812 -1.75562,-0.50058 -3.25965,0.38444 -3.97156,2.337003 -0.53556,1.4688868 -0.35569,2.6965058 0.7898,5.3904838 0.19146,0.450293 0.48802,1.455077 0.65901,2.232854 0.17099,0.777778 0.44558,1.950026 0.61019,2.604997 0.25203,1.002762 0.47071,2.90271 0.3341,2.90271 -0.0224,0 -0.24325,-0.236781 -0.49069,-0.52618 z m 27.60981,-2.982591 c -0.35502,-0.364561 -0.26771,-0.544088 0.13336,-0.27423 0.19863,0.13365 0.32524,0.302659 0.28136,0.375573 -0.10828,0.179912 -0.151,0.169474 -0.41472,-0.101343 z m 1.40298,-0.160792 c -0.30078,-0.127268 -0.20661,-0.338035 0.28992,-0.64892 0.57163,-0.357907 1.15708,-0.377833 1.63587,-0.05568 0.57337,0.38579 0.45873,0.661145 -0.25877,0.621535 -0.33884,-0.01871 -0.81177,0.0096 -1.05095,0.06286 -0.23918,0.05328 -0.51641,0.06237 -0.61607,0.0202 z m -25.37487,-3.951912 c -0.28209,-0.289677 -0.20005,-0.850101 0.18186,-1.242278 0.19569,-0.200957 0.424,-0.365377 0.50735,-0.365377 0.23421,0 0.179,1.084374 -0.0741,1.455447 -0.25712,0.376964 -0.36922,0.404702 -0.6151,0.152208 z m -1.07993,-1.977362 c -0.51213,-0.462878 -0.50241,-0.705012 0.0474,-1.180059 0.73072,-0.631398 0.89668,-0.531085 0.77847,0.470553 -0.14679,1.243844 -0.19183,1.282541 -0.82583,0.709506 z m 29.34092,-1.45229 c -0.23093,-0.237149 -0.21134,-0.659701 0.0351,-0.756815 0.26693,-0.105183 0.37657,0.02188 0.37657,0.436413 0,0.411099 -0.18394,0.554259 -0.41167,0.320402 z m 1.28142,-0.410855 c -0.13065,-0.0867 -0.14853,-0.145208 -0.0448,-0.146578 0.0949,-0.0012 0.21296,0.06471 0.26223,0.146578 0.11123,0.18481 0.061,0.18481 -0.21743,0 z m -30.72128,-0.874375 c -0.20346,-0.390391 -0.19693,-0.867561 0.0137,-1.001236 0.23085,-0.146512 0.72545,0.511909 0.67194,0.894506 -0.0575,0.410944 -0.49185,0.478563 -0.68564,0.10673 z m 18.62636,-1.10998 c -0.27316,-0.205119 -0.27261,-0.212681 0.0278,-0.37776 0.16858,-0.09265 0.4458,-0.168453 0.61604,-0.168453 0.23808,0 0.29884,0.07731 0.26321,0.334928 -0.0557,0.402615 -0.51096,0.50867 -0.90701,0.211285 z m 3.68737,-0.355054 c 0,-0.164026 0.11138,-0.190714 0.47111,-0.112875 0.71611,0.15495 0.77828,0.327689 0.11794,0.327689 -0.41664,0 -0.58905,-0.06287 -0.58905,-0.214814 z m -1.81548,-1.679728 c 0.0396,-0.204678 0.0729,-0.556353 0.074,-0.781499 0.002,-0.336867 0.0661,-0.409356 0.36437,-0.409356 0.41425,0 0.46552,0.173378 0.13464,0.455368 -0.12527,0.106759 -0.32165,0.399649 -0.4364,0.650868 -0.17684,0.387147 -0.19766,0.400044 -0.13661,0.08462 z"
         style="fill:#333333;stroke-width:0.14689444"
         sodipodi:nodetypes="ccscsccscscccccccccccscssscsccccccccscsccccscsccccsccccccsscccccccccccccscsscssccscssccssccscscccsscsccccsccccccccccccsscscccccccsccccccccsccccccscccccccccscccssccscccccscccsscscsscsscccssccccscccscsccssccscccccscscccccccccssccscscsccsccscccccccccccccsccsccssccscsccccccccccscccccccccccccccccccccccccscccccscscsccsccscsccsccccccccsccscccsccccssccccccccccccccccccccccscssscccccccccssscsccccsscccsccccccscccsscsccccsssscsccccccccccccccsscccccsccccccccccscccscccscssccscccsccccscscsccccccccsccccccscsssccsccscsccccccscccccsccscccccccccccsccccccccccccccccccccccccsccscsccsscccccccccccccccccsccccccccscccccccscccccsccsccccccccccccccccccscccccccccccccscscccsscccsscsccccccccccccscssccccccsccsssscccssccscccccccsccccccsccccccccccccccccsssscsccscccccccccccccccscscscccccccccccccccsccccccccccsccccccccccsscccscssccsccccc"
         transform="translate(-5e-6)" /><rect
         y="56.511189"
         x="-116.50593"
         height="31.352097"
         width="16.450174"
         id="rect887"
         style="opacity:1;fill:#333333;fill-opacity:1;stroke:none;stroke-width:1.98615444;stroke-miterlimit:4;stroke-dasharray:none;stroke-opacity:1" /><path
         sodipodi:nodetypes="ccccc"
         inkscape:connector-curvature="0"
         id="path891"
         d="m -114.57062,69.09073 11.78295,0.864015 0.14859,-1.911835 -11.93637,-0.929897 z"
         style="fill:#ffffff;fill-opacity:1;stroke:none;stroke-width:1px;stroke-linecap:butt;stroke-linejoin:miter;stroke-opacity:1" /><rect
         y="63.865376"
         x="-102.18459"
         height="2.3223774"
         width="3.0965033"
         id="rect901"
         style="opacity:1;fill:#333333;fill-opacity:1;stroke:none;stroke-width:2.07399988;stroke-miterlimit:4;stroke-dasharray:none;stroke-opacity:1" /></g></g></g></svg>